<svg xmlns="http://www.w3.org/2000/svg" version="1.1" xmlns:xlink="http://www.w3.org/1999/xlink" width="520" height="520"><svg xmlns="http://www.w3.org/2000/svg" version="1.1" xmlns:xlink="http://www.w3.org/1999/xlink" width="520" height="520"><svg width="520" height="520" viewBox="0 0 520 520" fill="none" xmlns="http://www.w3.org/2000/svg">
<g filter="url(#filter0_g_47_70)">
<rect x="4" y="4" width="512" height="512" rx="60" fill="url(#paint0_linear_47_70)"></rect>
</g>
<g filter="url(#filter1_dg_47_70)">
<path fill-rule="evenodd" clip-rule="evenodd" d="M417.707 84.0967C416.798 85.2507 414.444 91.4771 412.475 97.9349C405.468 120.925 397.442 129.266 375.6 136.264C365.72 139.429 364.283 140.419 363.824 144.381C363.336 148.62 364.003 149.099 374.909 152.343C395.273 158.397 405.622 168.51 412.262 188.844C416.438 201.636 419.121 205.383 423.033 203.885C425.778 202.834 426.114 202.169 432.528 185.158C439.571 166.477 448.531 158.137 467.856 152.278C485.668 146.875 485.382 141.645 466.964 135.937C446.956 129.736 435.967 118.004 429.798 96.2575C426.705 85.3547 424.745 82 421.468 82C420.309 82 418.616 82.9444 417.707 84.0967ZM246.507 105.117C228.495 111.543 212.84 128.126 206.339 147.67L203.679 155.666L198.33 149.579C191.005 141.241 177.852 133.143 166.085 129.728C139.77 122.091 110.452 136.041 97.9472 162.151C95.3348 167.606 93.9218 174.26 93.396 183.584C92.7223 195.488 93.1725 198.402 97.1526 207.906C104.266 224.896 104.326 224.012 95.9849 225.26C83.6937 227.1 68.4406 235.416 58.0394 245.947C41.8085 262.38 35.1639 281.575 39.1087 300.64C41.8959 314.116 45.7482 321.127 55.5026 330.487C68.8993 343.342 83.1427 348.645 104.36 348.68C111.058 348.692 116.54 348.943 116.54 349.24C116.54 349.537 115.314 353.371 113.817 357.761C109.941 369.118 111.295 390.315 116.616 401.537C122.733 414.439 137.052 427.73 150.141 432.653C165.288 438.351 188.431 438.46 203.131 432.903C226.716 423.986 244.476 403.568 253.183 375.356C253.822 373.29 256.417 374.94 264.287 382.416C284.063 401.205 310.953 410.143 335.366 406.045C359.35 402.02 378.716 388.512 388.151 369.227C392.294 360.758 392.864 357.689 392.884 343.668C392.913 324.425 389.941 315.5 379.066 302.17C371.05 292.344 371.023 292.626 380.433 287.523C387.004 283.961 396.061 273.174 401.078 262.937C416.401 231.666 404.604 195.46 374.059 180.006C365.347 175.6 362.704 175.093 348.386 175.093C339.608 175.093 329.78 175.706 326.546 176.455L320.666 177.817L320.657 161.359C320.651 146.587 320.148 143.879 315.753 134.927C309.739 122.678 299.857 112.563 288.745 107.281C277.263 101.825 258.442 100.86 246.507 105.117ZM418.501 116.731C414.555 126.579 406.025 135.59 396.464 140.013L388.234 143.821L394.771 146.54C403.636 150.227 413.525 160.014 418.05 169.582L421.791 177.489L425.645 169.273C430.299 159.353 439.334 150.213 448.084 146.573L454.538 143.888L445.915 139.597C436.725 135.025 428.523 126.19 424.031 116.025L421.28 109.801L418.501 116.731ZM248.355 121.195C227.795 130.754 216.916 157.743 220.596 190.069C221.488 197.902 223.038 207.359 224.045 211.088C225.851 217.785 225.967 217.866 233.789 217.883C238.698 217.893 245.166 219.508 250.82 222.135L259.935 226.372L267.355 219.184C290.704 196.559 304.855 164.838 299.942 146.134C293.61 122.02 270.555 110.874 248.355 121.195ZM138.132 144.718C122.664 150.235 113.158 163.669 113.197 179.956C113.234 195.366 128.247 215.348 149.118 227.766C157.957 233.026 187.097 245.541 187.784 244.373C194.059 233.692 198.568 228.854 206.327 224.483L215.426 219.357L212.919 210.643C204.207 180.349 181.741 150.441 163.676 145.084C152.823 141.867 146.386 141.774 138.132 144.718ZM326.704 192.734C308.615 199.229 292.627 209.231 277.384 223.592L267.706 232.711L271.834 240.463C274.105 244.727 276.465 251.571 277.082 255.672C278.11 262.511 278.707 263.257 284.313 264.711C306.674 270.51 335.976 271.61 351.11 267.217C387.968 256.519 397.188 211.106 365.973 194.002C355.54 188.286 340.447 187.798 326.704 192.734ZM217.343 230.597C207.995 234.628 199.071 244.44 196.311 253.721C191.974 268.299 196.116 279.905 209.485 290.648C215.078 295.144 217.469 295.885 227.966 296.383C238.162 296.868 241.191 296.334 247.584 292.926C251.742 290.71 257.412 285.682 260.184 281.752C264.661 275.406 265.224 273.251 265.224 262.469C265.224 252.108 264.564 249.333 260.717 243.53C252.033 230.428 231.756 224.383 217.343 230.597ZM101.207 239.455C97.8548 240.17 90.881 242.822 85.7081 245.348C47.9256 263.804 55.3279 311.837 96.6788 316.537C119.432 319.123 141.368 312.828 170.045 295.481C179.888 289.526 188.097 284.506 188.287 284.325C188.476 284.142 187.564 281.003 186.26 277.348C184.957 273.693 183.856 266.914 183.816 262.284L183.742 253.865L171.562 249.3C164.863 246.789 154.845 243.55 149.301 242.1C137.684 239.066 110.144 237.551 101.207 239.455ZM274.327 278.583C270.76 287.179 262.96 296.457 255.981 300.4C247.811 305.018 247.893 306.274 257.651 326.056C270.058 351.211 286.413 366.946 306.271 372.832C334.776 381.283 362.139 366.983 368.555 340.281C372.668 323.164 362.203 304.632 341.391 292.175C331.479 286.242 310.033 279.556 289.627 276.037L276.334 273.745L274.327 278.583ZM181.168 300.692C134.735 331.811 120.063 373.577 147.977 395.176C157.636 402.649 164.773 404.896 178.702 404.849C189.044 404.814 192.808 404.011 199.703 400.364C211.555 394.098 218.07 387.93 224.77 376.64C232.351 363.863 235.823 348.069 235.823 326.374V308.905L226.459 307.806C214.576 306.412 206.114 302.888 199.649 296.643L194.555 291.722L181.168 300.692Z" fill="#26312A"></path>
<path d="M217.343 230.597C207.995 234.628 199.071 244.44 196.311 253.721C191.974 268.299 196.116 279.905 209.485 290.648C215.078 295.144 217.469 295.885 227.966 296.383C238.162 296.868 241.191 296.334 247.584 292.926C251.742 290.71 257.412 285.682 260.184 281.752C264.661 275.406 265.224 273.251 265.224 262.469C265.224 252.108 264.564 249.333 260.717 243.53C252.033 230.428 231.756 224.383 217.343 230.597Z" fill="#FBD555"></path>
<path d="M181.168 300.692C134.735 331.811 120.063 373.577 147.977 395.176C157.636 402.649 164.773 404.896 178.702 404.849C189.044 404.814 192.808 404.011 199.703 400.364C211.555 394.098 218.07 387.93 224.77 376.64C232.351 363.863 235.823 348.069 235.823 326.374V308.905L226.459 307.806C214.576 306.412 206.114 302.888 199.649 296.643L194.555 291.722L181.168 300.692Z" fill="#F88EA2"></path>
<path d="M274.327 278.583C270.76 287.179 262.96 296.457 255.981 300.4C247.811 305.018 247.893 306.274 257.651 326.056C270.058 351.211 286.413 366.946 306.271 372.832C334.776 381.283 362.139 366.983 368.555 340.281C372.668 323.164 362.203 304.632 341.391 292.175C331.479 286.242 310.033 279.556 289.627 276.037L276.334 273.745L274.327 278.583Z" fill="#F88EA2"></path>
<path d="M326.704 192.734C308.615 199.229 292.627 209.231 277.384 223.592L267.706 232.711L271.834 240.463C274.105 244.727 276.465 251.571 277.082 255.672C278.11 262.511 278.707 263.257 284.313 264.711C306.674 270.51 335.976 271.61 351.11 267.217C387.968 256.519 397.188 211.106 365.973 194.002C355.54 188.286 340.447 187.798 326.704 192.734Z" fill="#F88EA2"></path>
<path d="M248.355 121.195C227.795 130.754 216.916 157.743 220.596 190.069C221.488 197.902 223.038 207.359 224.045 211.088C225.851 217.785 225.967 217.866 233.789 217.883C238.698 217.893 245.166 219.508 250.82 222.135L259.935 226.372L267.355 219.184C290.704 196.559 304.855 164.838 299.942 146.134C293.61 122.02 270.555 110.874 248.355 121.195Z" fill="#F88EA2"></path>
<path d="M138.132 144.718C122.664 150.235 113.158 163.669 113.197 179.956C113.234 195.366 128.247 215.348 149.118 227.766C157.957 233.026 187.097 245.541 187.784 244.373C194.059 233.692 198.568 228.854 206.327 224.483L215.426 219.357L212.919 210.643C204.207 180.349 181.741 150.441 163.676 145.084C152.823 141.867 146.386 141.774 138.132 144.718Z" fill="#F88EA2"></path>
<path d="M101.207 239.455C97.8548 240.17 90.881 242.822 85.7081 245.348C47.9256 263.804 55.3279 311.837 96.6788 316.537C119.432 319.123 141.368 312.828 170.045 295.481C179.888 289.526 188.097 284.506 188.287 284.325C188.476 284.142 187.564 281.003 186.26 277.348C184.957 273.693 183.856 266.914 183.816 262.284L183.742 253.865L171.562 249.3C164.863 246.789 154.845 243.55 149.301 242.1C137.684 239.066 110.144 237.551 101.207 239.455Z" fill="#F88EA2"></path>
<path d="M418.501 116.731C414.555 126.579 406.025 135.59 396.464 140.013L388.234 143.821L394.771 146.54C403.636 150.227 413.525 160.014 418.05 169.582L421.791 177.489L425.645 169.273C430.299 159.353 439.334 150.213 448.084 146.573L454.538 143.888L445.915 139.597C436.725 135.025 428.523 126.19 424.031 116.025L421.28 109.801L418.501 116.731Z" fill="#FCF6E4"></path>
</g>
<defs>
<filter id="filter0_g_47_70" x="0" y="0" width="520" height="520" filterUnits="userSpaceOnUse" color-interpolation-filters="sRGB">
<feFlood flood-opacity="0" result="BackgroundImageFix"></feFlood>
<feBlend mode="normal" in="SourceGraphic" in2="BackgroundImageFix" result="shape"></feBlend>
<feTurbulence type="fractalNoise" baseFrequency="0.3333333432674408 0.3333333432674408" numOctaves="3" seed="6662"></feTurbulence>
<feDisplacementMap in="shape" scale="8" xChannelSelector="R" yChannelSelector="G" result="displacedImage" width="100%" height="100%"></feDisplacementMap>
<feMerge result="effect1_texture_47_70">
<feMergeNode in="displacedImage"></feMergeNode>
</feMerge>
</filter>
<filter id="filter1_dg_47_70" x="34" y="78" width="462" height="380" filterUnits="userSpaceOnUse" color-interpolation-filters="sRGB">
<feFlood flood-opacity="0" result="BackgroundImageFix"></feFlood>
<feColorMatrix in="SourceAlpha" type="matrix" values="0 0 0 0 0 0 0 0 0 0 0 0 0 0 0 0 0 0 127 0" result="hardAlpha"></feColorMatrix>
<feOffset dx="8" dy="14"></feOffset>
<feGaussianBlur stdDeviation="3.5"></feGaussianBlur>
<feComposite in2="hardAlpha" operator="out"></feComposite>
<feColorMatrix type="matrix" values="0 0 0 0 0 0 0 0 0 0 0 0 0 0 0 0 0 0 0.21 0"></feColorMatrix>
<feBlend mode="normal" in2="BackgroundImageFix" result="effect1_dropShadow_47_70"></feBlend>
<feBlend mode="normal" in="SourceGraphic" in2="effect1_dropShadow_47_70" result="shape"></feBlend>
<feTurbulence type="fractalNoise" baseFrequency="0.5 0.5" numOctaves="3" seed="6100"></feTurbulence>
<feDisplacementMap in="shape" scale="8" xChannelSelector="R" yChannelSelector="G" result="displacedImage" width="100%" height="100%"></feDisplacementMap>
<feMerge result="effect2_texture_47_70">
<feMergeNode in="displacedImage"></feMergeNode>
</feMerge>
</filter>
<linearGradient id="paint0_linear_47_70" x1="260" y1="4" x2="260" y2="516" gradientUnits="userSpaceOnUse">
<stop stop-color="#FEE4BB"></stop>
<stop offset="1" stop-color="#DFDDB4"></stop>
</linearGradient>
</defs>
</svg></svg><style>@media (prefers-color-scheme: light) { :root { filter: none; } }
@media (prefers-color-scheme: dark) { :root { filter: none; } }
</style></svg>