<svg width="71" height="55" viewBox="0 0 71 55" fill="none" xmlns="http://www.w3.org/2000/svg">
<path d="M25.8417 10.9852V5.64842L24.0887 6.34961C24.0887 6.34961 23.6602 7.24556 23.7381 8.57002C23.7771 9.6218 24.4003 10.8294 24.8678 11.3748L25.8417 10.9852ZM30.5552 0C30.9447 0.0389546 31.6069 0.233728 32.0744 0.623275C32.5808 1.09073 32.6977 1.83087 32.5419 2.4931C32.386 3.07742 32.1913 3.38905 31.568 3.81756C30.9447 4.24606 30.4773 4.28501 30.4773 4.28501V6.85602L31.6848 7.79093L30.4773 8.88166V12.3876C30.4773 12.3876 31.4901 11.5695 32.2692 9.97239C32.2692 9.97239 32.3081 9.89448 32.386 9.69971C32.4639 10.1282 32.425 11.0242 31.9186 12.1149C31.529 12.9719 30.8668 13.751 29.9708 14.2184C28.4516 15.0365 27.283 15.1144 26.0754 14.8807C24.6341 14.608 23.3096 13.8289 22.4526 12.4655C21.8293 11.4916 21.5566 10.4009 21.5566 9.1933C21.5956 6.81706 23.4265 4.79142 25.53 4.01233C25.8027 3.93442 25.8806 3.85651 26.2312 3.81756C26.0754 3.93442 25.8806 4.05128 25.6469 4.2071C24.9846 4.6356 24.4003 5.49261 24.1276 6.15483L28.1789 4.40187V9.89448L24.9457 11.4916C25.3352 11.998 26.4649 12.7382 27.4388 12.855C29.0749 13.0498 30.1656 12.4265 30.1656 12.4265V8.84271L28.958 7.79093L30.1656 6.85602V4.28501C29.4644 4.2071 28.4906 3.89547 28.0231 3.7786C27.283 3.62278 24.8678 2.96055 24.4782 2.88264C24.0887 2.84369 23.6212 2.84369 23.3486 3.07742C23.0759 3.31114 22.8811 3.7786 22.998 4.16815C23.0759 4.40188 23.2317 4.51874 23.3486 4.6356C23.3486 4.6356 23.1927 4.6356 22.959 4.47978C22.4916 4.2071 22.141 3.70069 22.102 3.03846C22.0793 2.63081 22.1602 2.22404 22.3374 1.85618C22.5145 1.48831 22.782 1.17135 23.1148 0.934911C23.7381 0.545365 24.4393 0.311637 25.2573 0.428501C26.4649 0.58432 28.0621 1.24655 29.5034 1.59714C30.0488 1.714 30.4773 1.75296 30.8668 1.55819C31.0616 1.44132 31.3732 1.09073 31.1005 0.662229C30.7889 0.155819 30.2046 0.155819 29.6982 0.0779092C30.1656 -7.5461e-08 30.2435 0 30.5552 0Z" fill="white"></path>
<path d="M46.4095 9.5821L44.5397 10.9066V6.54364L46.4095 9.5821ZM46.3316 5.375L44.267 6.58259L42.3192 7.59542V12.6595L41.5791 13.2438L41.696 13.3607L42.4361 12.7764L44.7344 14.7631L48.7078 11.7246L48.6299 11.6077L46.4095 13.2828L44.5397 11.6857V11.0624L48.1624 8.49137L46.3316 5.375Z" fill="white"></path>
<path d="M35.8923 16.7506C36.3987 16.8675 37.3336 16.9454 38.4633 16.4C39.7099 15.8157 40.1773 14.5302 40.1773 13.2447L40.2163 11.4138V7.36252L40.9954 6.7782L40.9175 6.66134L40.1384 7.24566L38.4633 5.29793L35.8923 7.20671V0.740234L33.2823 2.88274C33.3992 2.96065 33.9835 3.03856 33.9835 3.58392V12.6604L32.6201 13.5174L32.698 13.6342L33.2823 13.2057L34.9184 14.686L37.4894 12.6993L37.4115 12.5824L36.7883 13.0499L35.9313 12.4656V7.40148L36.9441 6.7782L38.3465 8.21953V12.5824C38.3465 13.7511 38.0348 15.1145 37.4115 15.8157C36.7883 16.5169 36.5545 16.5558 35.8923 16.7506Z" fill="white"></path>
<path d="M47.6955 48.8009L45.6309 50.1253V45.7624L47.6955 48.8009ZM47.6566 44.5938L45.553 45.8013L43.6442 46.8142V51.8783L42.8262 52.4626L42.943 52.5795L43.6832 51.9951L45.9815 53.9818L49.9549 50.9434L49.877 50.8265L47.6566 52.5015L45.8257 50.8655V50.2422L49.4485 47.6712L47.6566 44.5938Z" fill="white"></path>
<path d="M41.0477 53.9815L43.4633 51.8398L43.3467 51.7233L42.7639 52.2303L41.7514 51.295V46.5425L42.7246 45.8796L42.6474 45.7631L41.7514 46.426L40.1153 44.634L37.7784 46.426L36.103 44.7127L33.8448 46.426L32.1693 44.7127L29.7538 46.7523L29.831 46.8689L30.6104 46.2453L31.7031 47.4546V51.6621L31.1582 52.1283L32.9109 54.0223L34.7029 52.309L33.9628 51.5689V46.5047L34.3911 46.155L35.5202 47.558V51.7247L35.1706 52.1909L36.8067 53.9436L38.5593 52.2682L37.86 51.6053V46.5411L38.367 46.1521L39.8239 47.5157V51.6825L39.2411 52.0715L41.0477 53.9815ZM26.5573 52.1123L25.858 52.695L25.9352 52.8116L26.6754 52.188L28.2721 53.98L30.5711 51.9928L30.4939 51.8763L29.7946 52.459L28.8593 51.4071V46.697L29.6751 46.0341L29.5586 45.9175L28.7791 46.5804L27.1037 44.6864L24.627 46.6343L24.9387 46.7115L25.5623 46.2045L26.5748 47.3336L26.5573 52.1123ZM28.6057 42.6074L26.8531 44.127L25.4501 42.6468L27.2071 41.0879L28.6057 42.6074Z" fill="white"></path>
<path d="M17.6619 50.204V44.8672L16.0258 45.5684C16.0258 45.5684 15.5973 46.4643 15.6752 47.7888C15.7141 48.8406 16.3374 50.0481 16.8049 50.5935L17.6619 50.204ZM22.3364 39.2188C22.7649 39.2577 23.3882 39.4525 23.8557 39.842C24.3621 40.3095 24.4789 41.0496 24.3231 41.7118C24.1673 42.2962 23.9725 42.6078 23.3492 43.0363C22.726 43.4648 22.2585 43.4259 22.2585 43.4259V45.9969L23.4271 47.0097L22.2585 48.0225V51.4895C22.2585 51.4895 23.2324 50.7883 24.0504 49.1911C24.0504 49.1911 24.0894 49.1132 24.1673 48.9185C24.2452 49.347 24.2062 50.2429 23.6998 51.3337C23.3103 52.1907 22.6481 52.9697 21.7521 53.4372C20.2329 54.2553 19.0642 54.3332 17.8566 54.0994C16.4153 53.8268 15.0908 53.0477 14.2338 51.6842C13.6106 50.7104 13.3379 49.6196 13.3379 48.4121C13.3768 46.0358 15.2077 44.0102 17.3113 43.2311C17.545 43.1532 17.6619 43.0753 18.0125 43.0363C17.8566 43.1532 17.6619 43.27 17.4281 43.4259C16.7659 43.8544 16.1816 44.7114 15.9089 45.3736L19.9212 43.6985V49.1911L16.7269 50.7104C17.1165 51.2168 18.2462 51.9569 19.22 52.0738C20.8561 52.2686 21.9079 51.5674 21.9079 51.5674V47.9836L20.7393 46.9707L21.9079 45.9579V43.3869C21.2067 43.309 20.3108 43.0753 19.8044 42.9584C19.0642 42.8026 16.649 42.1404 16.2595 42.0624C15.8699 42.0235 15.4025 42.0235 15.1298 42.2572C14.8571 42.4909 14.6623 42.9584 14.7792 43.3479C14.8571 43.5817 15.0129 43.6985 15.1298 43.8154C15.1298 43.8154 14.974 43.8154 14.7403 43.6596C14.2728 43.3869 13.9222 42.8805 13.8833 42.2183C13.8605 41.8106 13.9415 41.4038 14.1186 41.036C14.2957 40.6681 14.5632 40.3511 14.8961 40.1147C15.5194 39.7252 16.2205 39.4914 17.0386 39.6083C18.2462 39.7641 19.8433 40.4263 21.2846 40.7769C21.83 40.8938 22.2585 40.9328 22.6481 40.738C22.8428 40.6211 23.1545 40.2705 22.8818 39.842C22.5701 39.3356 21.9858 39.3356 21.4794 39.2577C21.9079 39.2188 22.0248 39.2188 22.3364 39.2188Z" fill="white"></path>
<path d="M52.6431 45.607V48.1391L53.7339 48.8792C53.7339 48.8792 55.6037 47.3989 56.3049 46.0745C56.3049 46.0745 55.4479 47.2042 54.3182 46.8536C53.3443 46.5809 52.8769 45.646 52.8769 45.646M50.7343 52.2683C50.7343 52.2683 51.5524 50.9438 52.9937 51.2165C54.3571 51.4892 54.9804 52.8915 54.9804 52.8915V49.6973L53.8507 48.9182C52.8379 49.931 50.9681 51.3723 50.7343 52.2683ZM52.0978 54.6835C51.8251 54.7614 50.6954 54.4887 50.4227 53.32C50.15 52.1904 50.9681 51.4502 52.1757 50.2426L50.7343 48.9571V46.5419C50.7343 46.5419 51.7861 46.0355 52.6042 45.5291L54.2792 44.4773C54.2792 44.4773 54.9025 45.2175 55.6037 45.1785C56.6944 45.1006 56.6555 44.2436 56.6165 44.0488C56.8113 44.3605 57.3177 45.3343 55.37 47.4768L56.9281 48.6844V51.8398C56.9281 51.8398 55.1362 52.7357 53.3833 53.9823C53.3833 53.9823 52.4094 52.8136 51.5913 53.359C51.046 53.7875 51.3187 54.4108 52.0978 54.6835Z" fill="white"></path>
<path d="M2.83461 34.1303C1.82179 34.0134 1.39329 33.4291 1.39329 32.9227C1.39329 32.611 1.70493 32.0267 2.32821 31.9488C2.95148 31.8709 3.57475 32.1436 4.12012 32.7668L6.49635 30.2348L6.37949 30.1179L5.75621 30.8191C5.09398 30.1179 4.31489 29.6505 3.37998 29.5336V21.7816L9.41795 32.65C9.41795 32.65 9.57377 32.7668 9.84645 32.7668C10.0802 32.7668 10.0023 32.611 10.0023 32.611V21.6648C10.5087 21.6648 11.1709 21.3921 11.5605 21.0025C12.7291 19.8339 12.2616 18.5484 12.1448 18.3926C12.0669 18.9379 11.6384 19.5223 10.8982 19.5223C9.92436 19.5223 9.34004 18.8211 9.34004 18.8211L6.8859 21.47L7.00276 21.5869L7.66499 20.8467C8.48304 21.5869 8.9505 21.6648 9.57377 21.7037V28.0533L5.17189 19.9897C4.74339 19.3275 4.12012 18.7432 3.14625 18.7432C2.01657 18.7432 1.19852 19.717 1.08165 20.5351C0.964791 21.47 1.08165 21.7037 1.08165 21.7037C1.08165 21.7037 1.23747 20.6519 1.8997 20.6519C2.48402 20.6519 2.6788 20.9636 2.95148 21.3531V23.9241C2.3282 23.9631 0.847926 24.041 0.731062 25.6771C0.731062 26.3004 1.12061 26.9236 1.4712 27.1184C1.8997 27.3911 2.25029 27.3911 2.25029 27.3911C2.25029 27.3911 1.74388 27.1184 1.8997 26.5731C2.05552 26.1056 2.95148 26.0277 2.99043 26.2225V29.4947C2.48402 29.4947 1.0427 29.5336 0.302562 30.8581C-0.125939 31.6372 -0.0869852 32.5331 0.341516 33.1564C0.731062 33.7018 1.51016 34.364 2.83461 34.1303Z" fill="white"></path>
<path d="M15.9234 27.4317L13.8977 28.7562V24.3932L15.9234 27.4317ZM15.8455 23.2246L13.7419 24.4322L11.911 25.445V30.5091L11.1709 31.0934L11.2878 31.2103L12.0279 30.626L14.1704 32.6127L18.1438 29.5742L18.0659 29.4574L15.8455 31.1324L14.0535 29.4963V28.873L17.6763 26.302L15.8455 23.2246Z" fill="white"></path>
<path d="M21.4555 32.7285L19.5078 31.1703L18.6508 31.7546L18.5729 31.6378L19.4299 31.0145V26.6126C19.4688 24.8207 17.7159 25.2492 17.8327 23.3404C17.8717 22.4834 18.7287 21.8601 19.1572 21.6654C19.6247 21.4316 20.0921 21.4316 20.0921 21.4316C20.0921 21.4316 19.2741 21.8991 19.4688 22.6003C19.7805 23.691 21.6503 23.7689 21.6893 25.2102V30.1964L22.8969 31.2872L23.2474 31.0145V25.5998L22.7021 24.8596L24.6498 23.1846L26.4417 24.7038L25.6237 25.405V30.1964L27.4156 31.5209L27.7272 31.3261V25.5998L26.9871 24.8986L28.9348 23.1846L30.7657 24.6259L31.5058 24.0026L31.5837 24.1195L29.9476 25.5219V30.1964L25.7795 32.6895L23.637 31.0924L21.4555 32.7285Z" fill="white"></path>
<path d="M48.5676 29.7299L50.5933 31.4829V26.1071L48.5676 24.3152V29.7299ZM52.8916 25.3281L53.5928 24.7048L53.7097 24.8216L52.8527 25.4449V30.4701L50.827 31.6387L48.9572 32.7294L46.581 30.7817L45.9577 31.3271L45.8408 31.2102L46.6589 30.6648V25.2112H46.542L48.6066 24.1984L50.3985 23.1855L52.8916 25.3281Z" fill="white"></path>
<path d="M57.6054 24.8218L59.1247 23.3025C59.1247 23.3025 59.3194 23.4973 59.5142 23.5752C59.6311 23.6142 60.0985 23.8479 60.4881 23.6142C60.7218 23.4973 60.7608 23.4583 60.9945 23.2246C61.0334 24.3932 60.4491 25.2113 59.7479 25.5619C59.4363 25.7177 58.4235 25.9514 57.4886 24.8997V30.3144L58.6182 31.1324L59.4363 30.5091L59.5142 30.626L57.0211 32.6516L55.1123 30.9766L54.4111 31.5999L54.2943 31.483L55.1513 30.587V25.9514L54.528 24.9386L53.8268 25.5229L53.71 25.4061L56.1251 23.3025L57.6054 24.8218Z" fill="white"></path>
<path d="M63.9932 27.0809L66.7979 23.1465C66.7979 23.1465 67.1874 23.575 67.8107 23.7308C68.6677 23.9645 69.4468 23.1465 69.4468 23.1465C69.291 24.1983 68.7456 25.4059 67.6159 25.6006C66.6031 25.7564 65.6682 25.0163 65.6682 25.0163L65.4734 25.289L69.3689 30.9764L70.148 30.3141L70.2649 30.431L67.577 32.6904L63.9932 27.0809Z" fill="white"></path>
<path d="M62.2503 21.3891C62.2503 20.5321 61.7439 20.0256 61.2765 20.0646L64.1981 18V29.7643L65.133 30.5824L65.7563 30.0759L65.8731 30.1928L63.419 32.2574L61.7439 30.7382L61.0817 31.3225L60.9648 31.2056L62.2893 30.2318V21.3891H62.2503Z" fill="white"></path>
<path d="M42.0229 25.0945C42.0229 25.0945 41.6723 25.4841 41.1659 25.4841C40.6205 25.4841 40.3868 25.0945 40.3868 25.0945V26.6916C40.3868 26.6916 40.6205 26.3021 41.1659 26.3021C41.7113 26.3021 42.0229 26.6527 42.0229 26.6527V25.0945ZM41.945 21.6665L40.9711 20.6537L40.3868 21.0822V24.8608C40.3868 24.8608 40.7374 25.2893 41.2828 25.2893C41.8281 25.2893 41.945 24.8608 41.945 24.8608V21.6665ZM40.3868 32.3401C40.3868 32.3401 41.088 32.5348 41.6334 32.1063C42.2177 31.6389 41.945 31.0156 41.945 31.0156V26.9643C41.945 26.9643 41.7892 26.5358 41.2828 26.5358C40.7374 26.5358 40.3868 26.9643 40.3868 26.9643V32.3401ZM36.1018 21.5886C36.1018 20.8095 35.7512 20.342 35.2448 20.342C34.4657 20.342 34.2709 21.3938 34.2709 21.3938C34.2709 21.3938 34.1151 20.5758 34.8552 19.8356C35.2448 19.4071 35.9849 18.8228 37.1536 19.0955C38.3612 19.3682 38.8286 20.2641 38.8286 21.0822V32.0284C39.0342 32.0783 39.2422 32.1174 39.4519 32.1453C39.8025 32.2232 39.9973 32.3011 39.9973 32.3011V19.1344H40.3868V20.9264L42.763 19.0176L44.555 20.5758L45.412 19.8746L45.4899 19.9914L44.6329 20.7316V30.8987C44.5939 31.561 44.477 32.2232 43.8148 32.6128C42.3735 33.4308 40.6205 32.4959 39.0624 32.2622C37.8937 32.1063 36.1018 31.8726 35.6343 32.9244C35.4785 33.275 35.4785 33.7814 36.0239 34.132C37.0757 34.7942 41.7502 33.0023 43.3474 33.7035C44.7887 34.3657 44.7887 35.4175 44.5939 36.1187C44.2044 37.4431 42.4514 37.7158 42.4514 37.7158C42.4514 37.7158 43.3084 37.2484 43.0747 36.4303C42.9578 36.0408 42.6851 35.9239 41.7502 36.0018C39.7635 36.2355 37.3483 37.1704 35.7512 36.5082C34.9332 36.1576 34.3488 35.1838 34.3878 34.1709C34.4267 32.7686 36.1408 32.1842 36.1408 32.1842V26.9254C36.1018 26.7306 35.2058 26.7696 34.9721 27.1591C34.6605 27.7434 35.3617 28.0161 35.3617 28.0161C35.3617 28.0161 34.8163 28.094 34.3488 27.5876C34.1151 27.3539 33.6477 26.4579 34.2709 25.6009C34.7773 24.8997 35.4006 24.7829 36.1797 24.705L36.1018 21.5886Z" fill="white"></path>
</svg>
