<svg width="251" height="95" viewBox="0 0 251 95" fill="none" xmlns="http://www.w3.org/2000/svg">
<mask id="mask0_345_3" style="mask-type:luminance" maskUnits="userSpaceOnUse" x="0" y="10" width="102" height="85">
<path d="M0 10.5918H101.81V95.0001H0V10.5918Z" fill="white"></path>
</mask>
<g mask="url(#mask0_345_3)">
<path d="M78.3078 76.2589C77.7521 70.9752 78.0325 66.6195 78.7565 61.4245C79.3837 56.9446 82.7845 53.304 84.4058 54.1669C86.379 55.408 86.4606 58.7058 86.0629 62.4588C85.089 70.857 79.0064 76.1584 78.3078 76.2589ZM54.1046 17.9792C55.3385 14.9296 56.9241 16.2357 57.0108 18.8007C56.9955 31.7734 51.2034 48.5995 48.9193 54.4269C49.4444 29.6162 54.0281 18.127 54.1046 17.9792ZM3.66878 43.6764C3.66878 43.6764 19.9692 41.9743 24.4866 41.531C22.1565 69.8228 16.9762 80.7033 6.63619 88.4337C5.14229 89.4266 1.54265 91.6607 1.87406 92.3817C2.34314 94.1015 8.69605 95.0826 9.91972 93.6819C9.986 93.5874 18.1897 87.7245 22.9417 75.6324C24.043 84.0425 27.7752 86.1051 29.7382 86.8439C32.2314 87.6063 34.6889 87.098 37.0751 85.3486C39.5276 83.5815 41.5976 80.5851 43.1527 77.6714C43.0711 79.6868 42.4134 91.2647 43.2343 91.767C44.7537 92.8072 48.027 91.6666 48.3176 91.2647C48.7306 90.0413 50.1735 82.1099 50.3877 81.2529C56.1899 63.2448 59.0197 58.5876 60.8042 56.0463C61.8443 54.4269 62.0483 56.0108 62.0279 56.3477C62.0075 56.6609 61.7831 71.8913 61.7831 71.8913C61.7831 79.5686 63.3025 83.5579 66.3311 85.6737C68.7785 87.3876 72.062 87.3463 76.0237 85.1241C80.2351 91.0933 85.7162 93.2505 90.7078 89.598C96.352 85.3309 100.716 71.5781 100.9 70.266C101.078 68.9363 99.5539 68.097 99.197 68.8772C98.1365 72.1336 92.7268 81.8321 88.8722 84.8049C87.3783 85.9574 85.8386 85.8274 84.8341 85.5023C83.381 85.0413 81.0866 83.2742 80.4238 82.2695C95.5668 68.8121 94.1544 48.1681 83.7583 47.7662C69.6249 48.375 72.5668 76.3475 73.4743 79.799C69.7982 81.2825 68.8703 80.6737 68.6153 80.195C67.1214 78.1856 67.3254 69.9292 67.4834 62.642C67.4834 62.5829 67.6058 54.7165 67.6058 54.7165C67.6058 52.0274 67.0449 50.4258 65.9436 49.2733C65.0769 48.369 63.9297 47.8844 62.553 48.1622C59.2236 48.8832 55.0682 55.6503 49.2354 70.8275C49.2813 68.2566 49.3373 63.8654 49.3373 63.6408C58.5404 45.7036 61.2937 29.4212 61.2937 22.1399V21.0111C61.2937 17.6542 61.1662 14.9651 59.5397 13.1388C58.0764 11.5313 56.0981 11.0348 53.9465 11.744C46.4362 14.1967 44.0704 48.3336 43.3005 62.3051C42.4644 71.5544 36.657 82.565 31.4513 80.26C29.1773 78.883 28.3105 75.0532 28.2799 72.3287V71.5544C28.2799 62.246 29.7076 49.7106 30.7273 40.8987C41.9494 39.7935 41.3937 39.6694 41.5976 39.6339C42.7295 39.4329 44.5191 32.4531 42.2145 32.5831C39.4409 33.0973 37.6869 33.5938 31.5482 34.0547C31.7725 32.3349 32.3589 27.8373 32.3589 27.8373L33.0013 23.1328V23.0265C33.0013 21.2948 31.6247 20.0655 29.0651 19.439L28.8255 19.3681L28.387 19.4627L27.9536 19.6813L27.5253 20.5738L26.6892 26.4839C26.6892 26.4839 25.8836 32.3763 25.593 34.4803C14.2383 35.1658 2.52159 35.3668 0.604498 35.5441C-1.2871 35.7509 1.7211 43.6941 3.66878 43.6764Z" fill="white"></path>
</g>
<mask id="mask1_345_3" style="mask-type:luminance" maskUnits="userSpaceOnUse" x="113" y="0" width="138" height="95">
<path d="M113.555 0H250.999V94.9992H113.555V0Z" fill="white"></path>
</mask>
<g mask="url(#mask1_345_3)">
<path d="M206.676 58.0553C208.568 60.7622 209.21 68.1971 208.17 70.6202C204.198 68.8058 203.28 61.6546 203.28 59.391C203.377 56.4241 205.6 56.4241 206.676 58.0553ZM129.131 20.9457C129.411 16.6431 129.85 12.1515 130.528 9.58646C131.237 6.84417 132.639 6.60776 133.373 6.79689C134.122 6.95646 135.927 7.94345 135.759 10.8335C135.601 13.1857 134.943 17.0214 133.342 22.3523C132.063 26.7494 129.534 33.1028 128.08 37.4586C128.504 32.7127 128.815 25.7684 129.131 20.9457ZM249.321 28.3334C246.716 28.688 238.859 30.4846 229.89 31.7849C230.089 29.7991 231.068 22.3523 231.068 22.3523C231.068 22.3523 231.088 22.2341 231.088 22.1927C231.088 21.5013 230.63 20.7093 228.748 19.1549C226.964 17.6774 225.205 17.376 224.71 18.6112C224.435 22.1396 223.772 29.7104 223.491 32.7068C214.64 33.8948 206.737 34.8522 204.805 34.929C202.852 35 204.728 42.8782 207.431 42.6358C207.431 42.6358 219.193 40.7741 222.803 40.2245C222.156 67.2692 216.935 73.2089 212.886 71.7964C214.564 61.6605 211.234 53.7055 206.834 51.6369C204.973 50.7209 199.732 50.8154 198.783 59.7811C198.712 60.5908 197.259 71.2113 206.661 76.0989C203.596 89.8222 189.672 87.0149 191.248 72.5824C192.272 63.1617 194.878 58.3154 196.922 55.6381C199.115 52.8663 201.083 52.6121 201.083 52.1984C201.98 51.6488 200.497 47.2575 198.972 48.1027C194.368 50.9809 190.315 54.1606 187.153 66.3295C185.823 72.2751 183.824 80.106 182.09 82.8778C180.336 85.3305 179.623 83.4097 179.46 82.3459C178.572 75.9393 179.908 61.0399 179.908 61.0399C179.908 56.0754 179.623 50.6913 176.043 49.1902C171.001 47.4821 166.519 54.0365 163.633 59.8875C164.041 56.7847 164.485 51.4951 164.485 51.4951L164.52 51.2232C164.52 50.7268 164.317 49.8048 163.047 49.1192C161.788 48.4632 158.412 49.462 158.412 49.462C158.412 49.462 158.387 51.5838 157.933 55.0412C156.643 64.5092 155.062 83.6461 143.524 82.4759C137.171 82.0504 130.145 71.554 127.958 67.2751C140.669 60.6972 147.761 52.2043 148.557 50.7268C149.372 49.2079 145.916 43.9183 144.687 45.0117C138.767 55.0412 132.251 58.2326 127.596 60.8508C127.785 58.1085 128.524 47.8663 128.56 47.5531C133.873 36.247 140.424 20.1124 140.424 9.80514C140.424 6.05221 139.094 3.10306 137.544 1.52506C136.101 0.142094 133.373 -0.425277 131.716 0.348949C127.53 2.25792 125.659 6.2768 124.435 17.3051C124.425 17.3524 122.778 36.1643 122.778 36.1643C122.778 36.1643 122.141 44.3616 122.044 45.585C119.775 49.8048 113.835 59.7161 113.835 59.8934C113.07 60.9808 116.094 66.3059 117.577 64.1841C117.577 64.1841 122.467 55.1948 122.365 55.1121C122.135 57.8662 120.096 75.9689 120.096 75.9689L118.872 89.9995L118.679 92.1213C118.679 93.5397 120.203 93.7643 120.84 93.8943C121.83 94.0184 125.021 94.3435 125.388 92.399C125.399 92.269 126.423 81.5008 126.541 74.8342C130.176 82.3341 135.922 87.5882 143.091 88.1024C147.364 88.3861 152.962 85.2419 154.665 82.7242C153.258 89.3021 152.61 92.6768 152.661 92.8127C152.518 94.4321 156.918 95.5432 157.607 94.7276C158.764 93.6283 164.271 65.112 170.828 58.4927C171.23 58.1144 174.177 55.1298 174.177 60.9454C173.978 65.1238 173.632 69.5919 173.632 71.9796C173.632 80.4429 174.177 89.5976 180.591 89.5976C183.645 89.5385 185.415 87.535 187.663 82.1863C189.111 85.496 192.109 90.6555 197.962 91.4475C204.422 92.009 209.516 85.8388 211.27 78.1261C215.548 78.788 218.714 76.6722 220.244 74.4086C220.284 76.158 220.33 77.8897 220.33 77.8897C220.448 77.8069 220.973 92.7477 230.599 92.9782C234.571 93.1023 240.924 90.8624 245.874 81.418C246.558 80.1769 243.269 73.9063 242.372 75.7916C241.087 80.0351 236.065 87.5823 230.726 86.7962C220.33 84.5267 227.387 53.1854 228.998 39.1193C237.574 37.695 247.955 35.9515 249.076 35.5555C251.203 35.325 251.947 27.9787 249.321 28.3334Z" fill="white"></path>
</g>
</svg>
