<svg xmlns="http://www.w3.org/2000/svg" fill="none" viewBox="0 0 110 37" height="37" width="110">
<path fill="white" d="M15.8857 0.0985962C10.1759 0.686019 4.72462 4.38406 1.97349 9.53592C-0.988572 15.0835 -0.582592 22.7314 2.96462 28.2144C3.98071 29.785 6.11607 32.0383 7.57442 33.0793C9.12689 34.1873 11.4913 35.2612 13.4339 35.742C15.7167 36.3067 19.9069 36.3079 21.9765 35.7454C25.2867 34.845 27.7554 33.4932 30.0348 31.3318C31.6973 29.7544 33.3246 27.543 34.0288 25.9044C35.1186 23.3642 35.7707 19.5402 35.5428 17.0239L35.443 15.9193H18.2671V22.8833H25.6065L25.2992 23.4776C24.8614 24.3235 22.8882 26.2434 21.9799 26.7073C19.3988 28.0239 15.9333 27.9365 13.5303 26.4941C12.9916 26.1709 12.0334 25.36 11.4017 24.6921C9.52153 22.7053 8.74359 20.6981 8.74019 17.8301C8.73679 15.0767 9.55782 13.0797 11.4766 11.1678C13.2014 9.45086 15.2903 8.58787 17.7171 8.58787C20.0407 8.58787 21.8858 9.31818 24.0336 11.0907L25.2209 12.0705H34.6015L34.4734 11.6577C34.2386 10.9001 33.0695 8.6922 32.3153 7.57973C31.9048 6.9753 30.9885 5.89911 30.2786 5.18921C26.4468 1.35736 21.3108 -0.458208 15.8845 0.0985962H15.8857ZM38.4266 17.9311V35.3428H46.4872L46.5348 23.9845L46.5825 12.6261L53.5907 35.2521L59.6135 35.3519L66.5571 12.9108L66.6047 24.1274L66.6524 35.344H74.8955V0.524988L63.2582 0.527256L59.973 11.0623C58.1665 16.856 56.6401 21.5497 56.5823 21.493C56.5244 21.4363 55.0286 16.7154 53.2584 11.0033L50.0401 0.617978L38.4266 0.521586V17.9333V17.9311ZM83.7863 17.059C81.6171 22.8664 79.4405 28.6711 77.2566 34.473L76.9164 35.344H85.9919L87.6567 30.3044H98.9663L100.631 35.344H105.172C107.669 35.344 109.711 35.3235 109.709 35.2986C109.707 35.2736 106.789 27.4591 103.225 17.9345L96.7436 0.616844L89.9746 0.51705L83.7851 17.0601L83.7863 17.059ZM95.0437 17.5954L96.6563 22.9729L93.3551 23.0228C91.5384 23.05 90.0268 23.0466 89.995 23.0149C89.9451 22.965 90.7197 20.342 92.7586 13.6569C93.0297 12.7667 93.2928 12.0784 93.3415 12.1283C93.3903 12.1782 94.1569 14.6379 95.0437 17.5954Z"></path>
</svg>
