<svg xmlns="http://www.w3.org/2000/svg" fill="none" viewBox="0 0 65 41" height="41" width="65">
<g id="Group 1171275371">
<path fill="white" d="M24.2046 40.0339H27.1966V34.658L24.2046 32.1272V40.0352V40.0339ZM31.8757 34.8239H34.3802L35.0575 34.2526V32.131L31.8757 34.8239ZM31.6338 3.67483L29.6317 5.79277L24.2145 0.0613764L31.0904 3.09858L31.635 3.67483H31.6338ZM60.8257 14.8732V0.0339355L64.459 2.22795V10.3579C63.5659 11.2922 61.7002 13.5747 60.8257 14.8732ZM64.459 17.8343V40.0339H60.8257V23.7915C61.6022 22.1026 63.4741 19.1377 64.459 17.8343ZM45.5084 40.0339C45.3905 39.0361 45.2479 37.5967 45.2479 36.3282C45.2479 35.5424 45.3533 32.3804 45.3533 29.8309C45.3533 27.6831 44.8919 23.8626 44.8919 21.7858C44.8919 20.5385 44.9824 18.8459 44.846 18.2497C45.8359 17.606 46.7005 17.1919 49.4295 15.5318C50.3127 14.9942 51.9997 14.0836 51.9997 12.9897C51.9997 12.5045 51.872 12.1865 51.1848 11.6202C50.7059 11.236 50.1912 11.1225 49.6094 11.1225C48.2188 11.1225 47.5899 12.5233 46.4239 13.2417C44.6463 14.3343 43.7023 14.8757 43.3388 15.079C43.1924 15.0129 42.5883 14.6499 41.6146 14.6499C40.6408 14.6499 39.4152 15.1089 39.4152 16.4373C39.4152 17.0472 39.6075 17.7058 38.7987 18.1337C38.3459 18.4218 36.1329 19.6928 33.7785 21.121C31.7926 22.3259 30.8684 22.2286 30.0311 22.7362C29.257 23.2065 29.0548 23.7902 29.0548 24.2979C29.0548 24.7494 29.3377 25.3169 29.4369 25.4429C29.9703 26.1289 30.4491 26.5006 31.2889 26.5006C32.7105 26.5006 33.8939 25.2496 36.0908 23.6792C37.4602 22.6988 38.7181 21.6798 39.4524 21.6798C40.1099 21.6798 40.5676 22.1787 40.5676 24.2293C40.5676 31.0895 40.1533 32.1771 40.1533 36.9369C40.1533 37.7925 40.1855 39.3754 40.2141 40.0339H36.5956V28.7957L29.6304 34.6967L22.664 28.7957V40.0339H0.0911865V0.0339355H22.0685L29.6317 8.03917L37.1948 0.0339355H59.2863V17.1383C58.5879 18.2222 56.453 21.8993 55.0153 25.6524C54.5452 26.8785 54.3281 27.7654 53.7091 27.7654C53.0293 27.7654 52.9723 27.0918 52.9078 26.4844C52.7688 25.1697 52.4761 22.7138 52.3396 21.8095C52.0767 20.0595 51.7318 18.2085 49.788 18.2085C48.3503 18.2085 46.8406 19.0005 46.8406 21.1671C46.8406 22.392 47.4572 24.5224 48.5128 27.3251C48.9284 28.4302 51.1426 34.2639 51.4601 35.1058C52.0444 36.6562 52.8557 37.0778 54.1197 37.0778C55.7373 37.0778 56.2967 36.4803 56.9616 34.199C57.5273 32.2545 58.4886 29.085 59.285 27.0993V40.0339H45.5071H45.5084Z" id="Vector"></path>
</g>
</svg>
