<svg xmlns="http://www.w3.org/2000/svg" fill="none" viewBox="0 0 144 57" height="57" width="144">
<path fill="white" d="M11.9893 20.9876C11.9893 27.103 13.195 29.9863 16.8817 29.9863C20.7112 29.9863 21.9867 26.9675 21.9867 20.3705C21.9867 14.3329 20.7112 11.3862 17.0361 11.3862C13.4046 11.3717 11.9893 14.3906 11.9893 20.9876ZM3.978 48.9959C3.978 52.9259 8.02006 55.5237 15.746 55.5237C23.9699 55.5237 28.1547 53.2171 28.1547 49.4861C28.1547 47.0295 26.2414 45.6946 22.5546 45.3457C16.4566 44.7834 11.0749 45.5562 7.02702 44.3625C5.04093 45.4149 3.978 47.0987 3.978 48.9959ZM31.2037 20.5666C31.2037 26.3332 26.454 30.3237 17.2254 31.3761C11.9078 31.9383 8.71607 32.4977 8.71607 34.9543C8.71607 37.48 13.3959 37.0591 21.1247 37.2609C29.57 37.4714 33.9586 39.7867 33.9586 45.7551C33.9586 52.5655 27.3655 57 15.6674 57C5.45737 57 0 53.8284 0 49.3477C0 47.8023 0.707653 46.4644 2.05598 45.3457C3.06528 44.5642 4.22299 43.9915 5.46028 43.6618C3.41304 42.4682 2.42 40.6546 2.42 38.3277C2.42 33.6943 6.10678 31.0964 13.4862 30.6754C6.39508 29.4126 2.71121 26.042 2.71121 20.9876C2.71121 15.3017 8.09869 10.5298 16.608 10.106C17.237 3.71946 20.4986 0 24.1155 0C26.4452 0 28.0149 1.61465 28.0149 3.65026C28.0149 6.03763 26.3841 7.72148 24.1854 7.72148C22.8371 7.72148 21.9168 6.87956 20.8539 6.87956C19.0804 6.87956 18.233 7.86276 18.0175 10.1781C26.2414 10.599 31.2037 14.8807 31.2037 20.5579M43.691 26.5264C43.691 36.6352 46.1721 41.6176 51.4897 41.6176C56.8073 41.6176 59.3525 36.6352 59.3525 26.5264C59.3525 16.4175 56.7316 11.3631 51.4897 11.3631C46.1838 11.3717 43.691 16.4348 43.691 26.5264ZM69.0005 26.5264C69.0005 36.073 61.8395 43.0218 51.4868 43.0218C41.1341 43.0218 34.0576 36.1508 34.0576 26.5264C34.0576 16.9798 41.1458 10.031 51.4985 10.031C61.8512 10.031 69.0121 16.9855 69.0121 26.5264M81.7528 26.5264C81.7528 36.6352 84.2339 41.6176 89.5515 41.6176C94.8691 41.6176 97.4143 36.6352 97.4143 26.5264C97.4143 16.4175 94.7934 11.3631 89.5515 11.3631C84.2339 11.3717 81.7528 16.4348 81.7528 26.5264ZM107.062 26.5264C107.062 36.073 99.9013 43.0218 89.5515 43.0218C79.2017 43.0218 72.1107 36.1508 72.1107 26.5264C72.1107 16.9798 79.1988 10.031 89.5515 10.031C99.9042 10.031 107.065 16.9855 107.065 26.5264M126.472 41.2745C131.291 41.2745 134.978 36.4305 134.978 27.5154C134.978 19.2316 131.009 14.3185 126.612 14.3185C124.486 14.3185 122.639 15.2325 120.726 16.9855V32.0767C120.726 38.1144 122.287 41.2716 126.469 41.2716M120.726 49.3448C120.726 52.2281 121.224 53.7678 123.056 54.3272C124.544 54.8202 125.607 54.6155 125.607 55.5209C125.607 56.011 125.252 56.3628 124.614 56.3628H108.25C108.132 56.3746 108.013 56.3616 107.901 56.3244C107.788 56.2873 107.685 56.227 107.598 56.1474C107.51 56.0678 107.441 55.9708 107.395 55.8628C107.348 55.7548 107.325 55.6383 107.327 55.5209C107.327 54.6789 108.32 54.8894 109.526 54.3993C111.439 53.6265 111.937 52.3636 111.937 49.3448V20.8492C111.937 17.8303 111.299 16.7059 109.101 15.7947C107.968 15.3017 107.045 15.3738 107.045 14.601C107.045 13.4074 111.442 13.6899 120.732 10.2501V15.022C124.914 11.7235 128.388 10.0368 132.089 10.0368C138.895 10.0368 144 15.6534 144 24.2169C144 35.0956 136.557 42.7478 125.779 42.7478C124.076 42.7369 122.383 42.5003 120.744 42.0443V49.3448H120.726Z"></path>
</svg>
