<svg width="521" height="100" viewBox="0 0 521 100" fill="none" xmlns="http://www.w3.org/2000/svg">
<path d="M26.7382 3.47168C13.7858 3.47168 3.47266 15.7969 3.47266 50.0012C3.47266 79.4219 9.25807 96.5259 26.7382 96.5259C45.8546 96.5259 48.117 77.6635 48.117 62.0738L34.2838 61.4416C34.028 74.3956 32.7744 82.6895 27.3655 82.6895C22.336 82.6895 20.5782 79.4235 20.5782 50.0028C20.5782 19.5695 23.9664 17.3033 27.3655 17.3033C31.3882 17.3033 33.2733 22.8377 33.2733 37.6796L47.86 37.1752C47.86 20.8286 45.5971 3.47168 26.7382 3.47168ZM73.2278 3.47331C58.7717 3.47331 49.3381 14.6666 49.3381 50.0028C49.3381 85.3342 58.7717 96.5276 73.2278 96.5276C87.6865 96.5276 97.1191 85.3334 97.1191 50.0028C97.1191 45.1146 96.9321 40.7044 96.5828 36.706C102.211 55.4838 125.011 60.0173 125.011 74.0171C125.011 77.6638 123.125 82.6896 117.716 82.6896C110.673 82.6896 110.673 73.8923 110.673 68.8611V68.8595H96.0863C96.0863 81.1875 99.6115 96.5259 117.09 96.5259C126.699 96.5259 133.354 91.8555 136.817 84.7966V94.7669H148.891V29.1269H149.14L160.081 94.7669H169.133L180.202 29.1269H180.454V94.7669H195.039V51.7188C195.345 85.6839 204.697 96.5275 218.917 96.5275C231.945 96.5275 240.888 87.4318 242.532 59.7943V94.7669H258.878V58.9291H265.42C277.379 58.9291 283.835 52.3569 286.101 41.8331C285.977 44.4051 285.908 47.1156 285.908 50.0028C285.908 85.3342 295.34 96.5275 309.796 96.5275C324.261 96.5275 333.692 85.3333 333.692 50.0028C333.692 14.6666 324.261 3.47327 309.796 3.47327C298.268 3.47327 289.941 10.607 287.038 31.4095C286.833 12.505 277.169 5.23715 258.878 5.23715H242.532V40.2097C240.888 12.5682 231.945 3.47328 218.917 3.47328C204.697 3.47328 195.345 14.317 195.039 48.2868V5.23715H173.786L166.116 51.1314H165.867L158.571 5.23715H136.817V25.0532C135.296 12.0814 129.361 3.47328 116.463 3.47328C102.777 3.47328 95.4948 14.1837 95.3409 27.438C91.9668 9.68575 83.9929 3.47331 73.2278 3.47331ZM334.042 5.23719V94.7669H371.266V80.9337H350.391V5.23719H334.042ZM373.884 5.23719V94.7669H390.23V5.23719H373.884ZM392.979 5.23719V19.0688H407.064V94.7669H423.412V19.0688H437.312L426.682 94.7669H440.388L442.648 74.8982H455.861L458.242 94.7669H473.075H473.964H486.905V40.5673H487.157L504.638 94.7669H517.336V5.23719H504.261V52.5138H504.01L489.047 5.23719H473.075V87.5757L462.894 5.23719H439.255L437.492 17.787V5.23719H392.979ZM73.2278 17.3033C77.0029 17.3033 79.2633 21.2025 79.2633 40.5673V59.4319C79.2633 78.7959 77.0029 82.6895 73.2278 82.6895C69.4528 82.6895 67.1908 78.7959 67.1908 59.4319V40.5673C67.1908 21.2025 69.4528 17.3033 73.2278 17.3033ZM116.08 17.3033C122.62 17.3033 122.619 25.7302 122.619 30.7614H136.817V59.1622C129.443 43.5495 109.921 37.8224 109.921 25.4794C109.921 20.5748 112.185 17.3033 116.08 17.3033ZM218.917 17.3033C222.687 17.3033 224.951 21.2025 224.951 40.5673V59.4319C224.951 78.7959 222.687 82.6895 218.917 82.6895C215.145 82.6895 212.88 78.7959 212.88 59.4319V40.5673C212.88 21.2025 215.145 17.3033 218.917 17.3033ZM309.797 17.3033C313.576 17.3033 315.835 21.2025 315.835 40.5673V59.4319C315.835 78.7959 313.576 82.6895 309.797 82.6895C306.027 82.6895 303.764 78.7959 303.764 59.4319V40.5673C303.764 21.2025 306.027 17.3033 309.797 17.3033ZM259.011 19.0688H260.261C265.669 19.0688 270.7 19.4444 270.7 32.3976C270.7 43.2103 267.052 45.8541 260.388 45.8541H259.011V19.0688ZM449.437 19.0688H449.691L454.467 61.8231H444.291L449.437 19.0688Z" fill="white"></path>
</svg>
