<svg width="398" height="100" viewBox="0 0 398 100" fill="none" xmlns="http://www.w3.org/2000/svg">
<path d="M118.3 78.7004H108V15.9004H94.9004V82.5004H108.3H118.3V78.7004Z" fill="white"></path>
<path d="M136.4 15.9004L120.9 82.5004H124.9L131.6 53.7004H144.8L150.3 82.5004H163.5L148.7 15.9004H136.4ZM132.5 49.8004L138.9 22.5004L144.1 49.8004H132.5Z" fill="white"></path>
<path d="M201.401 15.9004L190.801 61.8004L181.301 15.9004H170.601L166.701 16.0004V82.5004H170.601V25.1004L173.001 34.6004L183.801 82.5004H189.401H190.001L202.601 28.8004V82.5004H215.801V15.9004H201.401Z" fill="white"></path>
<path d="M233.3 37.2004C233.3 37.2004 233.2 45.9004 233.2 49.4004C233.2 52.9004 233.3 61.2004 233.3 61.2004C233.3 71.0004 235.7 78.6004 242.3 78.6004C248.9 78.6004 251.3 71.0004 251.3 61.2004C251.3 61.2004 251.4 52.9004 251.4 49.4004C251.4 45.9004 251.3 37.2004 251.3 37.2004C251.3 27.4004 248.9 19.8004 242.3 19.8004C235.7 19.8004 233.3 27.4004 233.3 37.2004ZM264.6 49.2004C264.6 81.5004 245.9 82.5004 242.3 82.5004C238.7 82.5004 220 81.5004 220 49.2004C220 16.9004 238.7 15.9004 242.3 15.9004C245.9 15.9004 264.6 16.9004 264.6 49.2004Z" fill="white"></path>
<path d="M292.2 77.9004C302.4 77.9004 301.5 59.7004 301.5 59.7004C301.5 54.7004 301.5 16.3004 301.5 15.9004H305.3C305.3 16.3004 305.7 54.7004 305.7 59.7004C305.7 60.3004 305.7 60.9004 305.7 61.5004C305.6 67.1004 304.8 73.6004 300.9 77.8004C300.7 78.1004 300.4 78.3004 300.1 78.6004C295.7 82.4004 288.7 82.9004 283.3 82.1004C277.8 81.3004 272.7 78.3004 270.6 72.6004C269 68.3004 268.9 63.6004 268.9 59.1004V15.9004H282V63.8004V63.9004C282 64.0004 281.8 77.9004 292.2 77.9004Z" fill="white"></path>
<path d="M339.4 52.7008C341.3 51.9008 343.1 51.1008 344.4 49.5008C348.5 44.6008 348.5 39.2008 348.5 34.4008C348.5 25.3008 344.2 19.1008 336.2 16.6008C336.1 16.6008 336 16.5008 335.9 16.5008C335.9 16.5008 335.9 16.5008 335.8 16.5008C335.7 16.5008 335.6 16.5008 335.5 16.4008C335.4 16.4008 335.3 16.4008 335.2 16.3008C335.2 16.3008 335.2 16.3008 335.1 16.3008C335 16.3008 334.9 16.3008 334.8 16.3008C334.7 16.3008 334.6 16.3008 334.5 16.3008C334.5 16.3008 334.5 16.3008 334.4 16.3008C334.3 16.3008 334.2 16.3008 334.1 16.3008C334 16.3008 333.9 16.3008 333.8 16.3008C333.8 16.3008 333.8 16.3008 333.7 16.3008C333.6 16.3008 333.5 16.3008 333.4 16.3008C333.3 16.3008 333.2 16.3008 333.1 16.3008C333 16.3008 332.9 16.3008 332.8 16.3008C332.7 16.3008 332.7 16.3008 332.6 16.3008C332.5 16.3008 332.5 16.3008 332.4 16.3008C332.4 16.3008 332.3 16.3008 332.2 16.3008C332.2 16.3008 332.1 16.3008 332 16.3008H331.9H331.8C331.8 16.3008 331.8 16.3008 331.7 16.3008H324.1H311.1V82.9008H324.3V53.7008H327.6L336.1 82.4008V82.5008H350L339.4 52.7008ZM326.3 49.8008C326.1 49.8008 323.3 49.8008 323.3 49.8008C323.3 46.0008 323.3 19.9008 323.3 20.0008C324.4 20.0008 325.8 20.1008 327 20.3008C334 21.7008 336.6 28.9008 336.7 35.0008C336.7 38.2008 336.6 41.7008 335.4 44.7008C335.1 45.5008 334.5 46.3008 333.9 47.0008C333.3 47.7008 332.7 48.4008 331.9 48.9008C330.2 49.8008 328.1 49.8008 326.3 49.8008Z" fill="white"></path>
<path d="M85.7004 24.3004C87.4004 26.9004 89.3004 32.8004 89.3004 41.2004C86.0004 41.2004 80.6004 41.2004 77.8004 41.2004V40.5004C77.8004 37.8004 77.8004 37.3004 77.8004 37.3004C77.8004 27.4004 75.6004 19.9004 70.7004 19.9004C64.5004 19.9004 62.3004 27.4004 62.3004 37.3004V56.8004C62.3004 59.6004 62.3004 61.9004 62.3004 61.9004C62.3004 72.0004 64.9004 79.1004 71.2004 79.1004C77.5004 79.1004 79.4004 72.0004 79.4004 61.9004V61.4004C79.4004 59.1004 79.5004 57.2004 79.4004 53.7004C76.3004 53.7004 72.6004 53.7004 69.5004 53.7004C69.5004 52.8004 69.5004 50.7004 69.5004 49.9004C76.3004 49.9004 83.2004 49.9004 90.0004 49.9004C90.0004 61.4004 90.0004 71.1004 90.0004 82.6004C87.4004 82.6004 84.4004 82.6004 81.8004 82.6004C81.7004 71.5004 81.9004 75.2004 81.7004 71.5004C81.1004 75.6004 79.0004 79.8004 75.4004 82.1004C71.5004 84.5004 66.3004 84.4004 62.2004 82.5004C58.1004 80.5004 54.9004 76.9004 52.9004 72.8004C50.9004 68.7004 49.9004 64.1004 49.3004 59.5004C49.0004 55.7004 48.8004 51.9004 49.0004 48.0004C49.3004 38.7004 51.3004 27.7004 58.6004 21.1004C61.8004 17.9004 66.1004 15.9004 70.9004 15.9004C75.3004 15.9004 79.3004 17.6004 82.4004 20.4004C82.4004 20.4004 82.4004 20.4004 82.5004 20.5004C83.6004 21.6004 84.8004 22.8004 85.7004 24.3004Z" fill="white"></path>
</svg>
