<svg width="71" height="49" viewBox="0 0 71 49" fill="none" xmlns="http://www.w3.org/2000/svg">
<path d="M1.072 20.0377C0.836001 18.9657 0.692001 18.8017 0.345001 18.7107L0 18.6107V18.3557H3.4V18.6107L3.127 18.6647C2.545 18.7917 2.6 19.3647 2.764 20.1647L4.2 27.2907L5.254 21.6187L4.874 19.6737C4.729 18.9737 4.674 18.7737 4.311 18.6737L4.075 18.6197V18.3647H7.402V18.6197L7.002 18.6927C6.402 18.7927 6.502 19.4557 6.639 20.1647L8.021 27.2917L9.384 20.5467C9.639 19.1467 9.511 18.8017 8.966 18.6927L8.584 18.6197V18.3647H11.084V18.6197L10.739 18.7197C10.303 18.8197 10.194 19.1737 9.939 20.3917L7.721 30.9717H7.248L5.548 22.7187L4.003 30.9717H3.403L1.072 20.0377ZM18.852 30.5377H19.579C21.124 30.5377 21.579 28.7007 21.759 26.7577H22.032V30.9017H12.732V30.6477L13.112 30.5747C13.894 30.4297 13.894 30.2117 13.694 29.1207L13.35 27.4847H11.114L10.878 28.7217C10.605 30.1217 10.751 30.4667 11.296 30.5757L11.676 30.6487V30.9027H9.15V30.6487L9.45 30.5487C9.95 30.4037 10.068 30.1127 10.323 28.8757L12.541 18.2957H13.086L15.413 29.2217C15.649 30.3487 15.758 30.5847 16.413 30.5847C16.976 30.5847 17.176 30.2847 17.176 29.7487V19.4927C17.176 18.9927 17.013 18.8197 16.649 18.7287L16.249 18.6287V18.3747H19.849V18.6477L19.349 18.7477C18.986 18.8207 18.822 18.9837 18.822 19.4927L18.852 30.5377ZM11.199 27.0647H13.271L12.217 21.9017L11.199 27.0647ZM25.015 30.5377H25.742C27.287 30.5377 27.742 28.7007 27.922 26.7577H28.195V30.9017H22.432V30.6477L22.832 30.5477C23.195 30.4477 23.359 30.2747 23.359 29.7657V19.4937C23.359 18.9937 23.196 18.8207 22.832 18.7297L22.432 18.6297V18.3747H26.032V18.6477L25.532 18.7477C25.169 18.8207 25.005 18.9837 25.005 19.4927L25.015 30.5377ZM34.115 30.9737C33.061 30.9737 32.697 30.2467 32.352 30.2467C32.152 30.2467 31.916 30.3007 31.734 30.9007H31.516V26.7477H31.789C32.007 29.0927 32.889 30.5647 34.089 30.5647C34.907 30.5647 35.471 29.8197 35.471 28.4647C35.471 25.6287 31.417 24.4107 31.417 21.2647C31.417 19.5647 32.29 18.2847 33.835 18.2847C34.835 18.2847 35.053 18.9387 35.471 18.9387C35.707 18.9387 35.871 18.7567 35.971 18.3567H36.189V22.5017H35.916C35.698 20.4017 35.134 18.6837 33.816 18.6837C32.916 18.6837 32.716 19.5837 32.716 20.2107C32.716 22.9107 36.77 23.8467 36.77 27.6277C36.769 29.5557 35.715 30.9547 34.097 30.9547L34.115 30.9737ZM40.815 29.7557C40.815 30.2557 40.978 30.4557 41.342 30.5377L41.815 30.6377V30.8917H38.15V30.6377L38.623 30.5377C38.986 30.4377 39.15 30.2647 39.15 29.7557V18.7297H38.75C37.623 18.7297 37.168 20.5657 37.05 22.5097H36.777V18.3677H43.195V22.5127H42.922C42.795 20.5677 42.34 18.7327 41.222 18.7327H40.822V29.7477L40.815 29.7557ZM43.595 30.6557L43.995 30.5557C44.358 30.4557 44.522 30.2827 44.522 29.7737V19.5137C44.522 19.0137 44.359 18.8407 43.995 18.7497L43.595 18.6497V18.3947H47.067C48.612 18.3947 50.047 19.3767 50.047 21.4307C50.047 23.0127 49.302 24.1307 47.793 24.5307C49.447 24.8307 49.447 25.6307 49.611 27.7107L49.711 29.3107C49.766 30.2107 49.811 30.4107 50.056 30.4107C50.329 30.4107 50.438 29.7927 50.438 29.1927V28.8927H50.738V29.3107C50.738 30.3107 50.52 31.0107 49.484 31.0107C48.466 31.0107 47.984 30.4287 47.92 28.3387L47.82 26.0117C47.784 24.9117 47.52 24.7387 46.984 24.7387H46.13V29.7927C46.13 30.2927 46.293 30.4927 46.657 30.5927L47.057 30.6927V30.9467H43.557L43.595 30.6557ZM46.158 24.3477H46.758C47.776 24.3477 48.285 24.0747 48.285 21.6477C48.285 19.2207 47.612 18.7477 46.885 18.7477H46.158V24.3477ZM53.458 30.5477H54.712C56.348 30.5477 56.658 28.6937 56.875 26.7677H57.148V30.9117H50.876V30.6677L51.276 30.5677C51.639 30.4677 51.803 30.2947 51.803 29.7857V19.5117C51.803 19.0117 51.64 18.8117 51.276 18.7297L50.876 18.6297V18.3747H56.976V22.5197H56.703C56.503 20.5747 56.121 18.7397 54.721 18.7397H53.467V24.2117L54.049 24.1937C54.829 24.1387 55.122 23.4667 55.321 21.8937H55.594V26.9477H55.321C55.157 24.9677 54.849 24.6477 54.021 24.6027L53.458 24.5847V30.5477ZM60.203 30.5477H61.457C63.093 30.5477 63.402 28.6937 63.62 26.7677H63.893V30.9117H57.623V30.6677L58.023 30.5677C58.386 30.4677 58.55 30.2947 58.55 29.7857V19.5117C58.55 19.0117 58.386 18.8117 58.023 18.7297L57.623 18.6297V18.3747H63.723V22.5197H63.45C63.25 20.5747 62.868 18.7397 61.468 18.7397H60.214V24.2117L60.796 24.1937C61.578 24.1387 61.868 23.4667 62.068 21.8937H62.35V26.9477H62.077C61.914 24.9657 61.604 24.6477 60.777 24.6027L60.214 24.5847L60.203 30.5477ZM68.329 29.7657C68.329 30.3287 68.493 30.4377 68.856 30.5297L69.419 30.6567V30.9107H65.674V30.6567L66.147 30.5567C66.51 30.4567 66.674 30.2837 66.674 29.7747V18.7297H66.274C65.147 18.7297 64.692 20.5657 64.574 22.5097H64.301V18.3677H70.718V22.5127H70.445C70.318 20.5677 69.863 18.7327 68.745 18.7327H68.345L68.329 29.7657ZM28.687 11.7297C28.687 12.2927 28.85 12.4017 29.214 12.4937L29.777 12.6207V12.8747H26.032V12.6207L26.505 12.5207C26.868 12.4207 27.032 12.2477 27.032 11.7387V0.712656H26.632C25.505 0.712656 25.052 2.54866 24.932 4.49266H24.65V0.349657H31.067V4.49466H30.794C30.667 2.54966 30.212 0.714656 29.094 0.714656H28.694L28.687 11.7297ZM31.467 12.6297L31.867 12.5297C32.23 12.4297 32.394 12.2567 32.394 11.7477V1.46766C32.394 0.967657 32.231 0.794656 31.867 0.703656L31.467 0.603656V0.347656H35.012V0.602656L34.594 0.702656C34.249 0.802656 34.049 0.938657 34.049 1.44766V6.22766H36.794V1.46766C36.794 0.967657 36.594 0.813656 36.249 0.722656L35.831 0.622656V0.347656H39.376V0.602656L38.976 0.702656C38.613 0.802656 38.449 0.957656 38.449 1.46666V11.7017C38.449 12.2017 38.612 12.4017 38.976 12.5017L39.376 12.6017V12.8557H35.83V12.6017L36.248 12.5017C36.593 12.4017 36.793 12.2017 36.793 11.7017V6.66766H34.05V11.7397C34.05 12.2397 34.25 12.4397 34.595 12.5397L35.013 12.6397V12.8937H31.47L31.467 12.6297ZM42.367 12.5297H43.621C45.257 12.5297 45.566 10.6757 45.784 8.74966H46.057V12.8937H39.785V12.6397L40.185 12.5397C40.548 12.4397 40.712 12.2667 40.712 11.7577V1.49466C40.712 0.994657 40.549 0.794657 40.185 0.712656L39.785 0.612657V0.347656H45.885V4.49266H45.612C45.412 2.54766 45.03 0.712656 43.632 0.712656H42.378V6.18466L42.96 6.16666C43.742 6.11166 44.032 5.43966 44.232 3.86666H44.505V8.92066H44.232C44.069 6.94066 43.759 6.62066 42.932 6.57566L42.369 6.55766L42.367 12.5297ZM15.953 46.0057C15.953 47.9517 14.971 48.9687 13.453 48.9687C12.09 48.9687 11.29 47.8687 11.308 46.6417C11.328 45.6967 12.008 45.2237 12.58 45.2967C12.98 45.3507 13.38 45.6417 13.325 46.2787C13.27 47.1787 12.288 47.1517 12.252 47.7147C12.216 48.0607 12.67 48.5687 13.252 48.5687C14.27 48.5687 14.27 47.2687 14.27 46.2967V37.4797C14.27 36.9797 14.106 36.8257 13.707 36.7347L13.253 36.6347V36.3797H16.835V36.6347L16.435 36.7347C16.072 36.8347 15.935 36.9897 15.935 37.4987L15.953 46.0057ZM20.189 48.9857C18.062 48.9857 17.026 46.1137 17.026 42.6227C17.026 39.1507 18.026 36.2787 20.189 36.2787C22.334 36.2787 23.369 39.1507 23.369 42.6227C23.369 46.1227 22.387 48.9857 20.189 48.9857ZM20.189 36.6857C19.289 36.6857 18.826 37.4127 18.826 42.5397C18.826 47.8397 19.244 48.5747 20.189 48.5747C21.134 48.5747 21.571 47.8287 21.571 42.5027C21.571 37.4027 21.135 36.6857 20.189 36.6857ZM30.569 48.6297L30.969 48.5297C31.332 48.4297 31.496 48.2567 31.496 47.7477V37.4977C31.496 36.8977 31.223 36.6797 30.596 36.6797C29.796 36.6797 29.596 37.0437 29.596 38.0797V45.9797C29.596 47.9427 28.896 48.9977 27.216 48.9977C25.471 48.9977 24.453 47.9437 24.453 46.0347V37.4977C24.453 36.9977 24.326 36.8247 23.953 36.7337L23.553 36.6337V36.3677H27.171V36.6227L26.671 36.7227C26.271 36.8227 26.108 36.9587 26.108 37.4677V46.1397C26.108 47.9027 26.608 48.3577 27.544 48.3577C28.644 48.3577 29.089 47.7397 29.089 45.9577V38.7227C29.089 37.1957 29.069 36.8227 28.417 36.6867L28.072 36.6137V36.3587H34.035C35.58 36.3587 37.015 37.3407 37.015 39.3947C37.015 40.9767 36.27 42.0947 34.761 42.4947C36.415 42.7947 36.415 43.5947 36.579 45.6747L36.679 47.2747C36.734 48.1747 36.779 48.3747 37.024 48.3747C37.297 48.3747 37.406 47.7567 37.406 47.1567V46.8567H37.706V47.2747C37.706 48.2747 37.488 48.9747 36.452 48.9747C35.434 48.9747 34.952 48.3927 34.888 46.3027L34.788 43.9757C34.752 42.8757 34.488 42.7027 33.952 42.7027H33.098V47.7567C33.098 48.2567 33.261 48.4567 33.625 48.5567L34.025 48.6567V48.9107H30.525V48.6567L30.569 48.6297ZM33.132 42.3217H33.732C34.75 42.3217 35.259 42.0487 35.259 39.6217C35.259 37.1947 34.586 36.7217 33.859 36.7217H33.132V42.3217ZM38.059 36.6857L37.805 36.6127V36.3677H40.185L43.439 44.6207V38.6757C43.439 37.3307 43.475 36.8577 42.512 36.6937L42.212 36.6207V36.3657H44.912V36.6207L44.658 36.6937C43.876 36.8757 43.931 37.5117 43.931 38.7937V48.9017H43.349L39.25 38.8797V46.5877C39.25 48.0597 39.25 48.4877 40.413 48.6417V48.8957H37.795V48.6417L38.123 48.5867C38.795 48.4587 38.777 47.8047 38.777 46.4867V37.7867C38.477 37.1507 38.34 36.8047 38.049 36.6867L38.059 36.6857ZM54.057 48.5207H54.784C56.329 48.5207 56.784 46.6837 56.964 44.7407H57.237V48.8847H47.967V48.6307L48.35 48.5677C49.132 48.4227 49.15 48.2047 48.932 47.1137L48.587 45.4777H46.35L46.113 46.7147C45.84 48.1147 45.986 48.4597 46.531 48.5687L46.911 48.6417V48.8957H44.384V48.6417L44.684 48.5417C45.184 48.3967 45.302 48.1057 45.557 46.8687L47.775 36.2887H48.321L50.647 47.2147C50.884 48.3417 50.974 48.5777 51.629 48.5777C52.192 48.5777 52.393 48.2777 52.393 47.7417V37.4977C52.393 36.9977 52.23 36.8247 51.866 36.7337L51.466 36.6337V36.3797H55.066V36.6527L54.566 36.7527C54.203 36.8257 54.039 36.9887 54.039 37.4977L54.057 48.5207ZM46.422 45.0677H48.494L47.45 39.8977L46.422 45.0677Z" fill="white"></path>
</svg>
