<svg xmlns="http://www.w3.org/2000/svg" fill="none" viewBox="0 0 314 200" height="200" width="314">
<path fill="white" d="M182.484 39.352C178.925 39.352 175.765 40.3118 173.086 42.0315C170.046 31.5536 160.928 25.6348 147.051 25.6348H125.135V33.2732H147.651C159.169 33.2732 165.927 39.512 165.927 50.4298C165.927 61.3476 159.129 67.5864 147.651 67.5864H147.451L148.731 65.7067C151.53 61.5476 154.05 57.4284 154.05 53.5492C154.05 45.5508 148.971 39.512 139.013 39.512C130.414 39.512 123.936 46.1107 123.936 53.8691H132.094C132.094 49.9899 134.653 47.1505 139.013 47.1505C143.692 47.1505 145.851 49.8699 145.851 53.8291C145.851 56.8685 143.932 59.8679 141.812 62.9873L138.533 67.7063H125.095V75.3448H133.334L118.977 96.3406H153.37V88.6622H133.094L142.252 75.2648H147.051C147.851 75.2648 148.611 75.2648 149.41 75.1849L173.446 106.539H183.804L175.885 96.2606L190.962 74.2251C194.841 68.7861 199.36 62.8273 199.36 55.9887C199.32 46.8705 192.402 39.352 182.484 39.352ZM170.806 89.622L158.409 73.5852C162.968 72.1455 166.647 69.706 169.326 66.3866C172.286 70.1459 176.965 72.5054 182.604 72.5054H183.044L170.806 89.622ZM182.484 64.9069C177.285 64.9069 173.886 60.9877 173.886 55.9487C173.886 55.5088 173.886 55.1489 173.966 54.7489V54.509C174.565 50.1899 177.765 46.9905 182.444 46.9905C187.643 46.9905 191.042 50.9097 191.042 55.9487C191.082 60.9877 187.683 64.9069 182.484 64.9069Z"></path>
<path fill="white" d="M156.689 0C121.216 0 92.3015 28.8742 92.3015 64.3871C92.3015 99.9 121.176 128.774 156.689 128.774C192.202 128.774 221.076 99.9 221.076 64.3471C221.036 28.8342 192.162 0 156.689 0ZM156.689 121.096C125.375 121.096 99.94 95.6609 99.94 64.3471C99.94 33.0334 125.375 7.63847 156.689 7.63847C188.002 7.63847 213.437 33.0734 213.437 64.3871C213.437 95.6209 188.002 121.096 156.689 121.096ZM21.3957 181.004C23.3953 179.124 24.6751 176.445 24.6751 173.485C24.6751 170.526 23.3953 167.846 21.3957 165.967C19.5961 164.287 17.1566 163.247 13.3973 163.247H0V199.96H7.07858V183.723H9.63807L22.7155 199.96H31.4337L17.7165 183.123C19.1962 182.643 20.4359 181.924 21.3957 181.004ZM16.5567 176.325C15.9568 177.005 15.037 177.405 12.9974 177.405H7.11858V169.526H12.9974C15.037 169.526 15.9568 170.006 16.5567 170.686C17.1566 171.366 17.5965 172.446 17.5965 173.525C17.5965 174.605 17.1566 175.605 16.5567 176.325ZM43.3913 183.443H54.6691V177.125H43.3913V169.566H58.3083V163.287H36.3127V200H58.8282V193.721H43.3913V183.443ZM68.0664 199.96H75.145V183.443H86.4227V177.125H75.145V169.566H90.062V163.287H68.0664V199.96ZM97.5005 163.247H104.579V199.96H97.5005V163.247ZM140.132 187.163L119.656 163.247H114.697V199.96H121.776V176.045L142.252 199.96H147.211V163.247H140.132V187.163ZM165.087 183.443H176.365V177.125H165.087V169.566H180.004V163.287H158.008V200H180.524V193.721H165.087V183.443ZM211.198 181.004C213.197 179.124 214.477 176.445 214.477 173.485C214.477 170.526 213.197 167.846 211.198 165.967C209.398 164.287 206.959 163.247 203.199 163.247H189.802V199.96H196.881V183.723H199.44L212.477 199.96H221.276L207.478 183.123C208.998 182.643 210.158 181.924 211.198 181.004ZM206.279 176.325C205.679 177.005 204.759 177.405 202.719 177.405H196.841V169.526H202.719C204.759 169.526 205.679 170.006 206.279 170.686C206.879 171.366 207.319 172.446 207.319 173.525C207.359 174.605 206.959 175.605 206.279 176.325ZM235.953 176.165L227.834 163.247H219.796L232.394 183.363V199.96H239.472V183.363L251.99 163.247H243.951L235.953 176.165ZM276.265 184.283C278.824 180.964 280.264 178.124 280.264 173.565C280.264 166.847 274.585 162.008 268.266 162.008H268.026C261.748 162.008 256.469 166.687 256.029 173.445H263.107C263.107 170.846 265.427 168.406 268.146 168.406C270.946 168.406 273.185 170.846 273.185 173.445C273.185 175.365 272.945 177.365 270.266 180.764L254.509 199.96H281.584V193.521H268.546L276.265 184.283ZM299.94 162.008C292.781 162.008 286.903 167.886 286.903 175.165C286.903 182.683 292.781 188.082 299.74 188.082H300.22L293.261 200H301.06L309.738 185.163C311.658 181.844 313.377 178.564 313.377 174.885C313.417 166.967 306.819 162.008 299.94 162.008ZM300.14 181.684C296.501 181.684 293.541 178.724 293.541 175.085C293.541 171.446 296.501 168.486 300.14 168.486C303.779 168.486 306.739 171.446 306.739 175.085C306.739 178.724 303.779 181.684 300.14 181.684ZM215.037 1.55969C218.316 1.55969 220.916 4.23915 220.916 7.43851C220.916 10.6379 218.236 13.3173 215.037 13.3173C211.798 13.3173 209.158 10.6779 209.158 7.43851C209.198 4.19916 211.798 1.55969 215.037 1.55969ZM215.037 12.5175C217.836 12.5175 220.116 10.198 220.116 7.43851C220.116 4.67906 217.836 2.35953 215.037 2.35953C212.238 2.35953 209.958 4.67906 209.958 7.43851C209.958 10.238 212.278 12.5175 215.037 12.5175ZM216.757 10.5979L214.557 7.43851H213.717V10.5979H212.917V4.15917H215.157C215.957 4.15917 216.357 4.35913 216.677 4.63907C216.997 4.91902 217.157 5.35893 217.157 5.79884C217.157 6.27874 216.957 6.63867 216.677 6.95861C216.437 7.19856 216.077 7.39852 215.517 7.43851L217.636 10.5979H216.757ZM215.117 6.71866C215.717 6.71866 215.957 6.59868 216.157 6.39872C216.277 6.19876 216.397 6.03879 216.397 5.79884C216.397 5.55889 216.317 5.35893 216.157 5.19896C215.957 4.999 215.717 4.87903 215.117 4.87903H213.717V6.67867H215.117V6.71866Z"></path>
</svg>
