<svg width="639" height="261" viewBox="0 0 639 261" fill="none" xmlns="http://www.w3.org/2000/svg">
<path fill-rule="evenodd" clip-rule="evenodd" d="M206.367 1.70107C204.167 2.73607 200.445 5.67606 198.096 8.23407C195.748 10.7921 193.455 12.8851 193.001 12.8851C192.548 12.8851 191.32 11.9371 190.272 10.7791C187.218 7.40106 180.945 4.70107 174.939 4.17807C170.174 3.76307 168.573 4.11106 163.882 6.58306C156.195 10.6351 152.51 16.6661 152.515 25.1901C152.517 28.5971 152.709 31.9761 152.943 32.6991C153.208 33.5201 151.562 34.7121 148.559 35.8751C141.866 38.4651 137.216 42.2731 134.735 47.1931C133.572 49.4991 132.534 51.4901 132.427 51.6191C132.319 51.7481 128.887 51.1431 124.799 50.2751C113.752 47.9291 94.4386 48.8421 81.4016 52.3261C41.5796 62.9711 13.4906 93.5551 15.0796 124.54C15.4196 131.173 16.0976 133.913 18.7146 139.228C20.4836 142.821 23.2666 146.885 24.8986 148.259C26.5316 149.632 27.8666 151.181 27.8666 151.701C27.8666 152.221 25.3636 153.913 22.3036 155.461C14.7076 159.304 7.65359 166.541 3.72459 174.521C0.909593 180.24 0.391591 182.468 0.0615906 190.283C-0.415409 201.572 1.83159 208.405 8.43559 215.751C16.5526 224.779 26.5596 228.885 40.4426 228.885C50.3206 228.885 58.8386 226.491 67.3666 221.318L73.3666 217.679L81.5416 218.931C102.95 222.211 127.193 216.334 143.637 203.877C146.536 201.682 149.497 199.885 150.218 199.885C150.939 199.885 152.168 201.086 152.948 202.554C154.834 206.102 161.28 210.684 165.496 211.475C167.362 211.825 169.101 212.455 169.36 212.873C169.619 213.292 169.106 215.762 168.22 218.362C166.151 224.435 166.818 233.577 169.845 240.612C176.02 254.966 195.67 263.356 214.242 259.569C235.976 255.137 253.085 239.497 263.48 214.556C264.895 211.162 266.383 208.036 266.786 207.608C267.19 207.181 269.651 208.023 272.256 209.479C275.469 211.275 279.062 212.291 283.435 212.643C289.382 213.12 290.206 213.486 294.123 217.392C297.39 220.65 299.587 221.885 303.666 222.755C315.042 225.181 335.661 223.636 348.367 219.406C353.192 217.8 357.734 217.067 362.984 217.049C371.152 217.021 376.037 215.518 381.496 211.354C385.39 208.384 386.054 208.329 388.283 210.793C389.233 211.842 392.32 213.694 395.145 214.909C399.423 216.75 401.585 217.042 408.109 216.665C414.641 216.287 417.083 215.614 422.841 212.606L429.744 209L432.363 211.061C442.51 219.042 462.222 218.889 476.62 210.716L481.873 207.735L485.912 211.192C493.97 218.089 507.177 218.803 518.719 212.966L525.07 209.754L528.719 212.212C537.505 218.132 549.989 218.479 560.751 213.101L566.965 209.996L571.501 213.19C575.853 216.255 576.43 216.384 585.702 216.364C594.619 216.346 595.874 216.089 601.928 213.048C616.904 205.523 634.539 184.336 637.73 170.032C639.773 160.87 634.982 151.706 626.041 147.675C622.741 146.187 621.872 145.328 622.376 144.055C626.516 133.6 620.175 121.545 609.201 119.007C606.542 118.392 599.192 117.861 592.867 117.827C586.542 117.792 578.217 117.731 574.367 117.691C569.631 117.641 565.722 118.257 562.279 119.594L557.191 121.57L553.529 117.538C550.494 114.197 549.867 112.762 549.867 109.163C549.867 100.878 545.185 94.4651 537.215 91.8351C533.066 90.4661 519.949 91.0881 513.39 92.9661C507.145 94.7541 502.426 100.233 499.862 108.675C498.023 114.73 497.325 115.885 495.505 115.885C494.313 115.885 491.617 116.807 489.515 117.934C486.209 119.705 485.213 119.824 482.148 118.813C476.686 117.01 464.147 118.087 458.441 120.849C453.57 123.207 448.065 127.986 444 133.385C442.512 135.362 441.561 135.951 441.213 135.112C440.922 134.411 439.263 131.728 437.526 129.148C431.274 119.866 419.123 116.541 405.855 120.481C401.391 121.807 399.849 121.869 396.755 120.848C394.461 120.091 389.925 119.798 384.948 120.086C380.504 120.344 376.867 120.196 376.867 119.757C376.867 119.319 379.348 116.18 382.38 112.782C389.566 104.729 391.705 98.2061 389.861 89.9701C388.357 83.2471 383.36 77.6701 377.344 76.0001C375.157 75.3931 368.777 74.8941 363.166 74.8911C346.009 74.8811 336.921 77.8231 332.235 84.9051C330.787 87.0941 329.426 88.8851 329.213 88.8851C328.999 88.8851 327.146 87.7821 325.096 86.4341C308.782 75.7111 286.382 88.8111 284.156 110.376L283.605 115.716L279.986 113.865C274.327 110.969 269.756 110.542 262.994 112.274C258.62 113.395 256.148 113.562 254.308 112.863C252.894 112.325 249.516 111.885 246.802 111.885C244.088 111.885 241.867 111.593 241.867 111.236C241.867 110.879 243.503 108.998 245.503 107.056C253.203 99.5781 255.463 87.4291 251.011 77.4411C248.926 72.7621 248.903 72.4471 250.588 71.5491C254.918 69.2391 261.537 61.1341 262.813 56.5791C266.901 41.9771 256.313 27.8851 241.253 27.8851H235.867V22.0811C235.867 14.3811 232.16 6.76907 226.628 3.10807C221.325 -0.400934 212.185 -1.03593 206.367 1.70107ZM207.765 9.13607C201.202 13.4841 196.407 28.2891 198.298 38.3671C198.817 41.1361 199.43 41.8851 201.177 41.8851C202.398 41.8851 205.051 42.7721 207.074 43.8561L210.752 45.8271L216.299 39.6971C225.66 29.3531 228.583 21.1051 225.759 13.0041C223.634 6.91007 214.19 4.88007 207.765 9.13607ZM166.381 13.0531C156.179 21.0781 162.148 34.7181 180.613 45.5741L184.858 48.0701L187.857 45.5471C189.507 44.1591 191.759 42.7371 192.862 42.3871C195.275 41.6211 195.291 41.3091 193.293 33.6011C190.461 22.6691 184.772 13.9481 179.052 11.7671C174.906 10.1871 169.301 10.7561 166.381 13.0531ZM303.543 21.0741C302.746 22.3451 301.311 25.8091 300.355 28.7711C297.976 36.1381 293.23 41.0811 285.296 44.4531C276.747 48.0861 276.803 50.1451 285.568 54.3851C293.948 58.4391 296.556 61.1091 300.492 69.6611C302.334 73.6631 304.559 77.2131 305.437 77.5501C307.676 78.4091 310.17 75.4051 312.834 68.6381C315.388 62.1501 319.749 57.7741 327.011 54.4101C336.643 49.9471 336.672 47.5401 327.135 44.0631C319.576 41.3071 315.622 37.1031 311.37 27.3071C307.699 18.8461 305.86 17.3811 303.543 21.0741ZM305.043 36.2761C303.604 40.2541 297.348 46.7261 294.17 47.5241C291.741 48.1331 290.974 49.8851 293.135 49.8851C296.045 49.8851 301.784 55.0771 304.173 59.8721L306.696 64.9341L307.832 61.4901C309.064 57.7581 316.874 49.8851 319.345 49.8851C321.579 49.8851 321.2 48.1251 318.801 47.3641C315.421 46.2911 309.672 40.6681 307.893 36.6941L306.232 32.9851L305.043 36.2761ZM236.77 34.9231C231.36 35.8091 227.623 37.5601 219.076 43.2201C213.92 46.6331 212.903 47.7461 213.439 49.3851C213.799 50.4851 214.311 53.0301 214.577 55.0401C215.019 58.3951 215.417 58.7861 219.406 59.7901C225.806 61.4021 238.752 61.1431 244.175 59.2961C252.545 56.4441 256.7 48.5501 253.444 41.6881C250.747 36.0051 244.828 33.6041 236.77 34.9231ZM149.137 43.3681C145.134 45.1081 141.732 50.4011 142.095 54.3251C142.314 56.6921 143.718 58.2271 149.3 62.2021C156.226 67.1351 156.238 67.1401 162.501 66.5551C168.599 65.9851 178.251 63.6021 180.464 62.1201C181.068 61.7161 181.828 59.0711 182.154 56.2421L182.747 51.1001L177.057 48.0881C166.002 42.2361 155.733 40.5001 149.137 43.3681ZM193.065 47.5581C189.201 49.4621 186.867 53.4371 186.867 58.1131C186.867 70.5611 206.382 72.9121 209.981 60.8981C211.02 57.4301 210.955 56.2931 209.549 53.3431C207.676 49.4171 202.598 45.8831 198.867 45.9121C197.492 45.9221 194.881 46.6631 193.065 47.5581ZM99.8666 55.9541C65.8206 59.1791 36.3796 78.9471 29.3356 103.313C25.9266 115.1 28.9356 126.644 37.1316 133.233C44.3776 139.057 58.1366 137.921 66.1886 130.833C70.2976 127.216 74.8336 119.519 73.5896 118.275C73.2656 117.951 71.4406 118.2 69.5346 118.83C54.9816 123.633 52.2466 104.168 65.3566 89.0981C75.3626 77.5951 97.5126 68.4931 110.405 70.5851L113.861 71.1461L109.315 74.6881C98.7356 82.9291 88.9146 100.427 76.3206 133.472C72.1546 144.404 67.0346 156.999 64.9436 161.462C58.5326 175.142 50.0706 182.53 44.0936 179.665C37.9506 176.721 39.2276 167.839 46.2756 164.495C50.7086 162.392 50.7726 161.505 46.6166 159.775C39.3286 156.742 26.3016 159.389 19.9966 165.184C14.0266 170.671 11.3866 182.013 13.9386 191.206C15.2486 195.923 20.8876 202.311 26.2986 205.207C29.7396 207.05 31.9916 207.385 40.9186 207.385C51.0666 207.385 51.7566 207.244 58.9386 203.694C63.0466 201.664 67.4326 198.911 68.6856 197.578C70.8556 195.267 71.1536 195.218 74.9576 196.528C86.9066 200.645 103.823 200.162 118.132 195.295C140.982 187.523 159.586 167.13 166.906 141.832C169.95 131.308 170.74 110.841 168.447 101.885C160.304 70.0811 134.335 52.6881 99.8666 55.9541ZM213.867 64.0801C213.867 64.7381 212.637 66.5601 211.133 68.1291L208.399 70.9831L211.383 76.5721C215.687 84.6331 223.438 92.4731 228.399 93.7811C236.887 96.0201 243.86 91.1061 243.86 82.8851C243.86 75.3571 237.751 69.8461 224.459 65.3841C216.167 62.6001 213.867 62.3171 213.867 64.0801ZM177.367 67.4001C174.617 68.7431 170.39 71.5581 167.973 73.6551L163.579 77.4691L166.063 81.4271C167.429 83.6041 169.662 88.1751 171.025 91.5851L173.504 97.7841L176.918 95.7081C181.193 93.1081 182.126 91.9281 186.262 83.8851C191.529 73.6431 191.533 73.5511 186.918 68.9361C184.69 66.7081 182.754 64.9011 182.617 64.9221C182.48 64.9421 180.117 66.0571 177.367 67.4001ZM199.143 73.6161L194.918 73.9971L192.352 82.1231C190.848 86.8841 189.871 92.1421 189.993 94.8201C190.108 97.3341 189.677 100.372 189.034 101.572C187.13 105.13 187.622 110.488 190.119 113.391C194.99 119.054 206.508 116.648 211.685 108.885C214.149 105.19 214.156 104.839 212.029 91.3851C210.673 82.8091 206.54 72.7461 204.503 73.0601C203.878 73.1561 201.466 73.4061 199.143 73.6161ZM119.258 81.1011C115.082 89.3931 111.63 98.7131 102.852 125.385C94.5166 150.714 88.6976 166.286 84.3116 174.994L80.6936 182.179L87.5296 181.479C111.679 179.007 132.961 161.206 141.452 136.375C144.695 126.893 145.96 108.287 143.914 100.151C142.36 93.9671 138.425 86.1391 135.045 82.5061C131.994 79.2261 124.983 73.8851 123.73 73.8851C123.269 73.8851 121.257 77.1321 119.258 81.1011ZM356.344 81.9711C344.994 82.8331 341.413 84.2141 339.371 88.5171C337.172 93.1521 338.051 96.4051 341.861 97.7331C344.341 98.5971 344.867 99.3301 344.867 101.917C344.867 107.155 322.074 175.007 317.598 183.094C316.131 185.744 314.003 187.533 310.149 189.358C306.046 191.301 304.407 192.741 303.31 195.367C301.535 199.616 301.53 199.405 303.438 201.314C304.716 202.591 307.57 202.882 318.688 202.868C333.339 202.849 344.932 201.041 347.958 198.303C352.052 194.598 351.174 187.681 346.46 186.498C343.454 185.743 342.661 183.494 343.775 178.885C345.135 173.261 365.591 108.752 367.322 104.63C368.224 102.48 370.708 99.5641 373.132 97.8091C377.968 94.3081 379.781 91.5621 379.832 87.6581C379.9 82.4091 372.897 80.7141 356.344 81.9711ZM306.868 90.0081C300.954 92.3671 296.867 98.4571 296.867 104.912C296.867 113.799 306.282 117.732 315.311 112.618C320.383 109.745 323.2 104.918 323.2 99.1011C323.2 95.2731 322.707 94.1321 320.018 91.7291C316.615 88.6881 311.768 88.0541 306.868 90.0081ZM202.617 91.5471C203.305 91.8251 204.43 91.8251 205.117 91.5471C205.805 91.2701 205.242 91.0431 203.867 91.0431C202.492 91.0431 201.93 91.2701 202.617 91.5471ZM522.257 97.9241C512.925 99.5751 512.511 99.9201 510.724 107.521C509.836 111.296 508.403 116.073 507.539 118.135C506.036 121.726 505.765 121.886 501.168 121.9C495.747 121.918 494.679 122.413 492.94 125.713C490.93 129.527 492.215 130.885 497.836 130.885C500.603 130.885 502.867 131.224 502.867 131.638C502.867 132.051 501.088 137.057 498.914 142.761C494.995 153.045 490.955 160.608 486.296 166.385L483.877 169.385L483.872 166.045C483.869 164.208 482.465 158.655 480.751 153.705C476.862 142.473 477.007 135.884 481.254 130.838C483.764 127.854 483.859 127.449 482.393 125.984C479.691 123.283 467.317 123.869 461.264 126.984C456.75 129.306 455.95 130.319 451.009 139.944C443.881 153.832 437.667 163.041 430.24 170.721C425.536 175.585 423.563 176.978 421.74 176.721C417.671 176.145 418.248 172.086 424.451 157.664C429.225 146.563 430.179 143.373 430.264 138.218C430.352 132.98 430 131.661 427.932 129.457C421.132 122.212 407.659 124.418 396.749 134.564C393.898 137.216 391.829 138.71 392.151 137.885C395.103 130.331 395.283 128.663 393.312 127.182C391.101 125.52 382.935 126.036 377.714 128.166C374.786 129.361 374.182 130.736 364.875 157.402C359.503 172.793 354.816 186.744 354.459 188.404C353.596 192.413 355.452 194.777 360.326 195.876C363.822 196.664 372.206 195.879 373.437 194.648C373.7 194.386 376.151 187.991 378.884 180.437C385.347 162.575 390.104 153.614 396.596 147.069C400.815 142.815 402.419 141.816 404.618 142.069C408.916 142.563 408.536 145.553 402.522 158.563C392.754 179.695 391.7 187.666 397.939 193.24C400.905 195.891 401.609 196.067 407.751 195.692C415.75 195.204 420.381 193.096 427.256 186.813L432.461 182.055L434.677 186.22C435.895 188.511 438.541 191.51 440.556 192.885C443.836 195.122 445.226 195.385 453.794 195.385C466.17 195.385 471.941 192.87 481.878 183.147L488.867 176.309V180.696C488.867 190.241 494.351 195.875 503.65 195.881C510.391 195.886 516.895 192.676 523.831 185.92C526.674 183.151 529.139 180.885 529.309 180.885C529.478 180.885 529.895 182.273 530.234 183.969C531.054 188.071 534.36 192.571 537.896 194.4C541.918 196.48 550.5 196.235 555.66 193.893C558.022 192.821 562.562 189.456 565.751 186.415C568.939 183.373 571.845 180.885 572.207 180.885C572.57 180.885 572.867 182.257 572.867 183.935C572.867 197.744 590.497 199.996 605.48 188.101C612.563 182.478 626.867 162.16 626.867 157.722C626.867 155.659 624.249 152.885 622.301 152.885C621.519 152.885 618.478 156.597 615.543 161.135C606.814 174.63 598.741 180.255 595.852 174.856C593.906 171.22 598.722 156.263 607.51 138.655C612.408 128.841 612.684 127.392 609.933 125.92C607.072 124.389 596.203 124.66 592.947 126.343C590.388 127.667 589.768 127.614 586.247 125.771C583.082 124.115 580.982 123.813 574.854 124.134C568.518 124.465 566.202 125.125 560.071 128.347C549.734 133.779 540.653 143.729 534.511 156.353C528.705 168.285 520.706 177.228 516.301 176.713C510.52 176.036 511.474 167.85 519.982 145.135L525.319 130.885L530.843 130.879C539.823 130.87 543.781 129.334 545.515 125.184C546.49 122.853 546.664 121.282 546.022 120.64C545.479 120.097 541.646 119.829 537.459 120.04C528.592 120.488 528.733 121.173 535.078 108.5C538.396 101.872 538.81 100.399 537.672 99.2621C535.859 97.4481 528.535 96.8121 522.257 97.9241ZM234.775 121.775C221.475 126.979 209.376 140.16 203.297 156.069C201.461 160.873 199.199 164.464 195.83 167.923C190.727 173.162 188.915 173.852 186.836 171.348C184.969 169.098 187.329 161.525 195.949 142.115C204.27 123.378 204.246 122.881 194.995 122.891C183.029 122.902 183.23 122.716 174.894 141.625C167.214 159.047 163.365 165.971 157.891 172.205C154.56 175.999 154.871 176.594 159.302 174.91C161.831 173.948 161.867 174.001 161.871 178.66C161.875 184.333 164.689 189.479 168.617 190.998C172.274 192.411 179.444 191.661 184.29 189.357C186.448 188.332 191.06 184.83 194.54 181.574C200.193 176.286 200.867 175.907 200.871 178.02C200.876 181.439 204.3 186.541 207.807 188.354C215.068 192.109 224.779 189.832 234.514 182.093L239.66 178.002L238.089 182.002C237.225 184.202 235.688 186.446 234.673 186.989C233.659 187.532 225.23 189.951 215.944 192.365C206.657 194.779 196.816 197.891 194.075 199.28C177.08 207.892 175.484 228.658 191.226 236.36C203.814 242.519 219.62 240.04 232.367 229.907C241.392 222.734 249.8 209.51 255.35 193.76C257.346 188.097 258.852 185.534 261.202 183.797C262.943 182.512 266.28 179.698 268.617 177.545L272.867 173.63V178.307C272.867 195.5 291.659 196.703 307.269 180.51C314.888 172.606 323.867 157.834 323.867 153.202C323.867 150.333 323.53 149.885 321.373 149.885C319.346 149.885 317.88 151.431 313.55 158.135C310.619 162.673 306.522 167.873 304.445 169.692C300.081 173.512 296.549 173.672 296.039 170.071C295.572 166.778 299.19 155.499 305.042 141.999C307.811 135.611 310.699 128.949 311.46 127.195C313.414 122.69 311.432 120.883 304.546 120.891C297.24 120.898 291.951 122.564 290.871 125.196C280.589 150.252 279.305 152.899 274.176 159.636C268.915 166.544 263.055 172.407 262.233 171.584C261.724 171.076 270.844 144.394 275.321 133.29C279.473 122.993 279.549 122.32 276.731 120.812C273.687 119.183 262.253 120.07 260.23 122.093C258.748 123.575 258.368 123.552 255.493 121.799C251.401 119.303 241.122 119.292 234.775 121.775ZM241.84 134.536C231.074 141.725 221.522 159.175 223.755 167.575C225.159 172.86 231.51 171.995 237.891 165.649C248.707 154.892 255.71 137.095 250.482 133.65C248.567 132.389 244.418 132.814 241.84 134.536ZM571.208 139.753C561.912 146.487 554.76 158.215 554.062 167.871C553.645 173.629 555.164 176.885 558.267 176.885C560.839 176.885 568.798 170.659 572.713 165.585C580.864 155.02 585.705 140.292 581.832 137.842C579.149 136.146 575.21 136.854 571.208 139.753ZM449.617 158.998C445.193 165.938 443.867 168.9 443.867 171.841C443.867 176.948 446.396 179.879 451.377 180.543C456.288 181.198 460.161 178.553 461.869 173.38C463.164 169.456 461.459 161.932 457.526 154.215L455.367 149.978L449.617 158.998ZM222.154 200.331C207.371 205.699 202.37 209.687 203.044 215.57C203.327 218.04 203.834 218.423 207.171 218.699C211.97 219.094 218.178 215.615 223.518 209.535C226.8 205.799 232.641 196.782 231.681 196.935C231.508 196.962 227.221 198.491 222.154 200.331Z" fill="#26312A"/>
<path d="M193.065 47.5581C189.201 49.4621 186.867 53.4371 186.867 58.1131C186.867 70.5611 206.382 72.9121 209.981 60.8981C211.02 57.4301 210.955 56.2931 209.549 53.3431C207.676 49.4171 202.598 45.8831 198.867 45.9121C197.492 45.9221 194.881 46.6631 193.065 47.5581Z" fill="#FBD555"/>
<path d="M166.381 13.0531C156.179 21.0781 162.148 34.7181 180.613 45.5741L184.858 48.0701L187.857 45.5471C189.507 44.1591 191.759 42.7371 192.862 42.3871C195.275 41.6211 195.291 41.3091 193.293 33.6011C190.461 22.6691 184.772 13.9481 179.052 11.7671C174.906 10.1871 169.301 10.7561 166.381 13.0531Z" fill="#F88EA2"/>
<path d="M149.137 43.3681C145.134 45.1081 141.732 50.4011 142.095 54.3251C142.314 56.6921 143.718 58.2271 149.3 62.2021C156.226 67.1351 156.238 67.1401 162.501 66.5551C168.599 65.9851 178.251 63.6021 180.464 62.1201C181.068 61.7161 181.828 59.0711 182.154 56.2421L182.747 51.1001L177.057 48.0881C166.002 42.2361 155.733 40.5001 149.137 43.3681Z" fill="#F88EA2"/>
<path d="M177.367 67.4001C174.617 68.7431 170.39 71.5581 167.973 73.6551L163.579 77.4691L166.063 81.4271C167.429 83.6041 169.662 88.1751 171.025 91.5851L173.504 97.7841L176.918 95.7081C181.193 93.1081 182.126 91.9281 186.262 83.8851C191.529 73.6431 191.533 73.5511 186.918 68.9361C184.69 66.7081 182.754 64.9011 182.617 64.9221C182.48 64.9421 180.117 66.0571 177.367 67.4001Z" fill="#F88EA2"/>
<path fill-rule="evenodd" clip-rule="evenodd" d="M199.143 73.6161L194.918 73.9971L192.352 82.1231C190.848 86.8841 189.871 92.1421 189.993 94.8201C190.108 97.3341 189.677 100.372 189.034 101.572C187.13 105.13 187.622 110.488 190.119 113.391C194.99 119.054 206.508 116.648 211.685 108.885C214.149 105.19 214.156 104.839 212.029 91.3851C210.673 82.8091 206.54 72.7461 204.503 73.0601C203.878 73.1561 201.466 73.4061 199.143 73.6161ZM205.117 91.5471C204.43 91.8251 203.305 91.8251 202.617 91.5471C201.93 91.2701 202.492 91.0431 203.867 91.0431C205.242 91.0431 205.805 91.2701 205.117 91.5471Z" fill="#F88EA2"/>
<path d="M213.867 64.0801C213.867 64.7381 212.637 66.5601 211.133 68.1291L208.399 70.9831L211.383 76.5721C215.687 84.6331 223.438 92.4731 228.399 93.7811C236.887 96.0201 243.86 91.1061 243.86 82.8851C243.86 75.3571 237.751 69.8461 224.459 65.3841C216.167 62.6001 213.867 62.3171 213.867 64.0801Z" fill="#F88EA2"/>
<path d="M236.77 34.9231C231.36 35.8091 227.623 37.5601 219.076 43.2201C213.92 46.6331 212.903 47.7461 213.439 49.3851C213.799 50.4851 214.311 53.0301 214.577 55.0401C215.019 58.3951 215.417 58.7861 219.406 59.7901C225.806 61.4021 238.752 61.1431 244.175 59.2961C252.545 56.4441 256.7 48.5501 253.444 41.6881C250.747 36.0051 244.828 33.6041 236.77 34.9231Z" fill="#F88EA2"/>
<path d="M207.765 9.13607C201.202 13.4841 196.407 28.2891 198.298 38.3671C198.817 41.1361 199.43 41.8851 201.177 41.8851C202.398 41.8851 205.051 42.7721 207.074 43.8561L210.752 45.8271L216.299 39.6971C225.66 29.3531 228.583 21.1051 225.759 13.0041C223.634 6.91007 214.19 4.88007 207.765 9.13607Z" fill="#F88EA2"/>
<path d="M305.043 36.2761C303.604 40.2541 297.348 46.7261 294.17 47.5241C291.741 48.1331 290.974 49.8851 293.135 49.8851C296.045 49.8851 301.784 55.0771 304.173 59.8721L306.696 64.9341L307.832 61.4901C309.064 57.7581 316.874 49.8851 319.345 49.8851C321.579 49.8851 321.2 48.1251 318.801 47.3641C315.421 46.2911 309.672 40.6681 307.893 36.6941L306.232 32.9851L305.043 36.2761Z" fill="#FBF3E1"/>
<path fill-rule="evenodd" clip-rule="evenodd" d="M99.8666 55.9541C65.8206 59.1791 36.3796 78.9471 29.3356 103.313C25.9266 115.1 28.9356 126.644 37.1316 133.233C44.3776 139.057 58.1366 137.921 66.1886 130.833C70.2976 127.216 74.8336 119.519 73.5896 118.275C73.2656 117.951 71.4406 118.2 69.5346 118.83C54.9816 123.633 52.2466 104.168 65.3566 89.0981C75.3626 77.5951 97.5126 68.4931 110.405 70.5851L113.861 71.1461L109.315 74.6881C98.7356 82.9291 88.9146 100.427 76.3206 133.472C72.1546 144.404 67.0346 156.999 64.9436 161.462C58.5326 175.142 50.0706 182.53 44.0936 179.665C37.9506 176.721 39.2276 167.839 46.2756 164.495C50.7086 162.392 50.7726 161.505 46.6166 159.775C39.3286 156.742 26.3016 159.389 19.9966 165.184C14.0266 170.671 11.3866 182.013 13.9386 191.206C15.2486 195.923 20.8876 202.311 26.2986 205.207C29.7396 207.05 31.9916 207.385 40.9186 207.385C51.0666 207.385 51.7566 207.244 58.9386 203.694C63.0466 201.664 67.4326 198.911 68.6856 197.578C70.8556 195.267 71.1536 195.218 74.9576 196.528C86.9066 200.645 103.823 200.162 118.132 195.295C140.982 187.523 159.586 167.13 166.906 141.832C169.95 131.308 170.74 110.841 168.447 101.885C160.304 70.0811 134.335 52.6881 99.8666 55.9541ZM102.852 125.385C111.63 98.7131 115.082 89.3931 119.258 81.1011C121.257 77.1321 123.269 73.8851 123.73 73.8851C124.983 73.8851 131.994 79.2261 135.045 82.5061C138.425 86.1391 142.36 93.9671 143.914 100.151C145.96 108.287 144.695 126.893 141.452 136.375C132.961 161.206 111.679 179.007 87.5296 181.479L80.6936 182.179L84.3116 174.994C88.6976 166.286 94.5166 150.714 102.852 125.385Z" fill="#FCF6E4"/>
<path fill-rule="evenodd" clip-rule="evenodd" d="M234.775 121.775C221.475 126.979 209.376 140.16 203.297 156.069C201.461 160.873 199.199 164.464 195.83 167.923C190.727 173.162 188.915 173.852 186.836 171.348C184.969 169.098 187.329 161.525 195.949 142.115C204.27 123.378 204.246 122.881 194.995 122.891C183.029 122.902 183.23 122.716 174.894 141.625C167.214 159.047 163.365 165.971 157.891 172.205C154.56 175.999 154.871 176.594 159.302 174.91C161.831 173.948 161.867 174.001 161.871 178.66C161.875 184.333 164.689 189.479 168.617 190.998C172.274 192.411 179.444 191.661 184.29 189.357C186.448 188.332 191.06 184.83 194.54 181.574C200.193 176.286 200.867 175.907 200.871 178.02C200.876 181.439 204.3 186.541 207.807 188.354C215.068 192.109 224.779 189.832 234.514 182.093L239.66 178.002L238.089 182.002C237.225 184.202 235.688 186.446 234.673 186.989C233.659 187.532 225.23 189.951 215.944 192.365C206.657 194.779 196.816 197.891 194.075 199.28C177.08 207.892 175.484 228.658 191.226 236.36C203.814 242.519 219.62 240.04 232.367 229.907C241.392 222.734 249.8 209.51 255.35 193.76C257.346 188.097 258.852 185.534 261.202 183.797C262.943 182.512 266.28 179.698 268.617 177.545L272.867 173.63V178.307C272.867 195.5 291.659 196.703 307.269 180.51C314.888 172.606 323.867 157.834 323.867 153.202C323.867 150.333 323.53 149.885 321.373 149.885C319.346 149.885 317.88 151.431 313.55 158.135C310.619 162.673 306.522 167.873 304.445 169.692C300.081 173.512 296.549 173.672 296.039 170.071C295.572 166.778 299.19 155.499 305.042 141.999C307.811 135.611 310.699 128.949 311.46 127.195C313.414 122.69 311.432 120.883 304.546 120.891C297.24 120.898 291.951 122.564 290.871 125.196C280.589 150.252 279.305 152.899 274.176 159.636C268.915 166.544 263.055 172.407 262.233 171.584C261.724 171.076 270.844 144.394 275.321 133.29C279.473 122.993 279.549 122.32 276.731 120.812C273.687 119.183 262.253 120.07 260.23 122.093C258.748 123.575 258.368 123.552 255.493 121.799C251.401 119.303 241.122 119.292 234.775 121.775ZM223.755 167.575C221.522 159.175 231.074 141.725 241.84 134.536C244.418 132.814 248.567 132.389 250.482 133.65C255.71 137.095 248.707 154.892 237.891 165.649C231.51 171.995 225.159 172.86 223.755 167.575ZM203.044 215.57C202.37 209.687 207.371 205.699 222.154 200.331C227.221 198.491 231.508 196.962 231.681 196.935C232.641 196.782 226.8 205.799 223.518 209.535C218.178 215.615 211.97 219.094 207.171 218.699C203.834 218.423 203.327 218.04 203.044 215.57Z" fill="#FCF6E4"/>
<path d="M306.868 90.0081C300.954 92.3671 296.867 98.4571 296.867 104.912C296.867 113.799 306.282 117.732 315.311 112.618C320.383 109.745 323.2 104.918 323.2 99.1011C323.2 95.2731 322.707 94.1321 320.018 91.7291C316.615 88.6881 311.768 88.0541 306.868 90.0081Z" fill="#FCF6E4"/>
<path d="M356.344 81.9711C344.994 82.8331 341.413 84.2141 339.371 88.5171C337.172 93.1521 338.051 96.4051 341.861 97.7331C344.341 98.5971 344.867 99.3301 344.867 101.917C344.867 107.155 322.074 175.007 317.598 183.094C316.131 185.744 314.003 187.533 310.149 189.358C306.046 191.301 304.407 192.741 303.31 195.367C301.535 199.616 301.53 199.405 303.438 201.314C304.716 202.591 307.57 202.882 318.688 202.868C333.339 202.849 344.932 201.041 347.958 198.303C352.052 194.598 351.174 187.681 346.46 186.498C343.454 185.743 342.661 183.494 343.775 178.885C345.135 173.261 365.591 108.752 367.322 104.63C368.224 102.48 370.708 99.5641 373.132 97.8091C377.968 94.3081 379.781 91.5621 379.832 87.6581C379.9 82.4091 372.897 80.7141 356.344 81.9711Z" fill="#FCF6E4"/>
<path fill-rule="evenodd" clip-rule="evenodd" d="M522.257 97.9241C512.925 99.5751 512.511 99.9201 510.724 107.521C509.836 111.296 508.403 116.073 507.539 118.135C506.036 121.726 505.765 121.886 501.168 121.9C495.747 121.918 494.679 122.413 492.94 125.713C490.93 129.527 492.215 130.885 497.836 130.885C500.603 130.885 502.867 131.224 502.867 131.638C502.867 132.051 501.088 137.057 498.914 142.761C494.995 153.045 490.955 160.608 486.296 166.385L483.877 169.385L483.872 166.045C483.869 164.208 482.465 158.655 480.751 153.705C476.862 142.473 477.007 135.884 481.254 130.838C483.764 127.854 483.859 127.449 482.393 125.984C479.691 123.283 467.317 123.869 461.264 126.984C456.75 129.306 455.95 130.319 451.009 139.944C443.881 153.832 437.667 163.041 430.24 170.721C425.536 175.585 423.563 176.978 421.74 176.721C417.671 176.145 418.248 172.086 424.451 157.664C429.225 146.563 430.179 143.373 430.264 138.218C430.352 132.98 430 131.661 427.932 129.457C421.132 122.212 407.659 124.418 396.749 134.564C393.898 137.216 391.829 138.71 392.151 137.885C395.103 130.331 395.283 128.663 393.312 127.182C391.101 125.52 382.935 126.036 377.714 128.166C374.786 129.361 374.182 130.736 364.875 157.402C359.503 172.793 354.816 186.744 354.459 188.404C353.596 192.413 355.452 194.777 360.326 195.876C363.822 196.664 372.206 195.879 373.437 194.648C373.7 194.386 376.151 187.991 378.884 180.437C385.347 162.575 390.104 153.614 396.596 147.069C400.815 142.815 402.419 141.816 404.618 142.069C408.916 142.563 408.536 145.553 402.522 158.563C392.754 179.695 391.7 187.666 397.939 193.24C400.905 195.891 401.609 196.067 407.751 195.692C415.75 195.204 420.381 193.096 427.256 186.813L432.461 182.055L434.677 186.22C435.895 188.511 438.541 191.51 440.556 192.885C443.836 195.122 445.226 195.385 453.794 195.385C466.17 195.385 471.941 192.87 481.878 183.147L488.867 176.309V180.696C488.867 190.241 494.351 195.875 503.65 195.881C510.391 195.886 516.895 192.676 523.831 185.92C526.674 183.151 529.139 180.885 529.309 180.885C529.478 180.885 529.895 182.273 530.234 183.969C531.054 188.071 534.36 192.571 537.896 194.4C541.918 196.48 550.5 196.235 555.66 193.893C558.022 192.821 562.562 189.456 565.751 186.415C568.939 183.373 571.845 180.885 572.207 180.885C572.57 180.885 572.867 182.257 572.867 183.935C572.867 197.744 590.497 199.996 605.48 188.101C612.563 182.478 626.867 162.16 626.867 157.722C626.867 155.659 624.249 152.885 622.301 152.885C621.519 152.885 618.478 156.597 615.543 161.135C606.814 174.63 598.741 180.255 595.852 174.856C593.906 171.22 598.722 156.263 607.51 138.655C612.408 128.841 612.684 127.392 609.933 125.92C607.072 124.389 596.203 124.66 592.947 126.343C590.388 127.667 589.768 127.614 586.247 125.771C583.082 124.115 580.982 123.813 574.854 124.134C568.518 124.465 566.202 125.125 560.071 128.347C549.734 133.779 540.653 143.729 534.511 156.353C528.705 168.285 520.706 177.228 516.301 176.713C510.52 176.036 511.474 167.85 519.982 145.135L525.319 130.885L530.843 130.879C539.823 130.87 543.781 129.334 545.515 125.184C546.49 122.853 546.664 121.282 546.022 120.64C545.479 120.097 541.646 119.829 537.459 120.04C528.592 120.488 528.733 121.173 535.078 108.5C538.396 101.872 538.81 100.399 537.672 99.2621C535.859 97.4481 528.535 96.8121 522.257 97.9241ZM554.062 167.871C554.76 158.215 561.912 146.487 571.208 139.753C575.21 136.854 579.149 136.146 581.832 137.842C585.705 140.292 580.864 155.02 572.713 165.585C568.798 170.659 560.839 176.885 558.267 176.885C555.164 176.885 553.645 173.629 554.062 167.871ZM443.867 171.841C443.867 168.9 445.193 165.938 449.617 158.998L455.367 149.978L457.526 154.215C461.459 161.932 463.164 169.456 461.869 173.38C460.161 178.553 456.288 181.198 451.377 180.543C446.396 179.879 443.867 176.948 443.867 171.841Z" fill="#FCF6E4"/>
</svg>
