<svg width="897" height="635" viewBox="0 0 897 635" fill="none" xmlns="http://www.w3.org/2000/svg">
<g clip-path="url(#clip0_47_4)">
<path fill-rule="evenodd" clip-rule="evenodd" d="M315.929 10.5717C319.11 6.94966 327.536 1.94966 332.438 0.77666C337.468 -0.42734 341.335 -0.25134 347.04 1.44366C364.887 6.74366 373.886 25.5007 368.5 46.1777C367.675 49.3447 367 52.1907 367 52.5007C367 53.5277 372.404 52.0887 378.99 49.3067C392.24 43.7097 405.383 46.0567 415.064 55.7487C421.773 62.4647 424.004 68.0927 423.99 78.2667C423.973 90.7307 417.482 100.033 404.084 106.797C400.114 108.8 398.009 110.471 398.026 111.603C398.04 112.558 400.267 114.842 402.975 116.678C412.219 122.948 415.803 129.674 416.704 142.441C417.03 147.06 417.473 147.973 418 147.973C418.526 147.973 413.5 146.5 409.5 144C405 139 380.643 141.901 392.861 141.901C414.051 141.901 420.892 152.907 424.662 179.568C425.279 183.929 426.158 187.497 426.616 187.497C427.073 187.497 431.267 185.307 441.65 185.034C453.707 178.121 456.833 173.076 467.972 173.059C474.069 173.05 478.662 173.627 482.212 174.849L487.453 176.651L492.988 174.033C505.455 168.135 520.84 168.353 533.172 174.603L539.372 177.745L542.892 174.013C546.355 170.341 546.386 170.232 544.832 167.226C537.27 152.603 536.785 136.523 543.493 122.832C556.345 96.6006 588.242 89.4277 608.525 108.207C620.121 118.942 627.786 139.946 625.501 154.724C623.869 165.282 620.673 172.465 613.781 181.072C610.52 185.145 610.517 185.157 610.646 196.072C610.718 202.081 610.447 208.46 610.044 210.247C609.317 213.481 609.332 213.497 613.196 213.497C618.265 213.497 626.543 217.675 630.576 222.269C640.071 233.082 642.506 251.245 636.505 266.497C631.508 279.199 618.046 301.604 609.364 311.668C606.673 314.787 604.472 317.552 604.472 317.812C604.472 318.073 679.552 314.388 686.338 314.095C702.318 313.405 707.692 314.615 713.521 320.216C719.26 325.731 721.493 333.081 720.536 343.301L719.859 350.52L726.425 351.608C730.036 352.206 734.341 353.658 735.991 354.833C739.237 357.144 744 364.486 744 367.177C744 369.717 745.402 369.237 752.74 364.188C765.333 355.524 776.317 351.798 788.96 351.9C793.195 351.934 798.911 352.726 802 353.707L807.5 355.452L813.5 352.67C831.393 344.372 855.823 347.879 866.771 360.316C874.84 369.483 875.87 381.461 869.918 396.897C868.204 401.339 867.08 405.252 867.419 405.591C867.757 405.93 870.025 406.291 872.459 406.394C881.225 406.763 890.797 415.205 894.507 425.839C896.714 432.167 897.491 444.32 896.103 450.795C893.795 461.555 880.732 487.006 869.354 502.908C847.447 533.528 819.545 545.622 795.925 534.735C792.156 532.998 788.311 530.735 787.381 529.708C786.451 528.68 785.295 527.839 784.813 527.839C784.33 527.839 780.316 530.375 775.892 533.475C764.662 541.344 754.917 544.979 743.375 545.604C729.294 546.367 717.111 542.451 708.025 534.243L704.109 530.705L695.654 537.545C679.807 550.364 666.204 555.439 650.001 554.577C638.002 553.939 631.277 551.396 622.549 544.197L615.999 538.794L607.267 545.858C589.403 560.309 572.603 567.609 554.972 568.58C539.304 569.444 527.636 566.616 514.716 558.824L508.076 554.819L500.012 561.33C485.769 572.828 472.449 578.045 457.523 577.972C448.646 577.928 442.201 576.319 435.746 572.536C431.51 570.054 423.451 562.117 419.298 556.339C417.692 554.103 417.018 553.721 416.655 554.839C416.386 555.664 415.245 559.489 414.119 563.339C410.84 574.551 404.715 580.491 391.829 584.959C386.769 586.714 383.094 587.172 373.5 587.246C358.595 587.361 352.737 585.629 346.314 579.206C343.912 576.804 341.581 574.839 341.133 574.839C340.684 574.839 339.054 577.201 337.51 580.089C323.977 605.396 298.459 624.286 267.34 632.035C259.884 633.892 255.761 634.231 241 634.205C225.442 634.176 222.44 633.889 213.95 631.614C195.772 626.744 180.911 617.742 170.989 605.591C147.135 576.377 149.115 531.515 175.418 505.274C190.107 490.619 205.331 486.084 225.5 490.356C229.349 491.172 232.778 491.839 233.119 491.839C233.46 491.839 230.696 488.74 226.975 484.953C219.378 477.219 214.989 469.166 212.416 458.239C210.312 449.307 210.997 432.499 213.916 421.424C215.064 417.07 215.832 413.338 215.624 413.13C215.416 412.922 210.732 413.671 205.216 414.795C183.291 419.263 160.597 416.766 142.978 407.948L134.992 403.951L130.573 407.776C115.221 421.063 95.246 428.182 73.5 428.118C42.414 428.026 19.519 414.001 6.928 387.339C1.904 376.702 0 367.933 0 355.437C0 336.408 6.038 320.77 17.992 308.839C25.711 301.135 32.053 297.52 42.675 294.769C60.611 290.125 76.648 293.202 88.012 303.469L91.935 307.013L94.383 304.371C97.194 301.338 100.634 294.445 101.149 290.815C101.45 288.69 101.146 288.38 99 288.625C97.625 288.783 92.9 288.184 88.5 287.295C71.215 283.802 56.212 272.466 46.714 255.722C37.956 240.281 34.694 223.839 36.81 205.806C41.651 164.537 73.365 126.413 119 106.999C137.798 99.0007 154.32 95.8247 176.881 95.8697C191.127 95.8987 206.966 97.7397 215.715 100.385C217.612 100.958 218.166 100.464 219.577 96.9387C223.107 88.1157 233.928 81.4957 248.227 79.4117C250.826 79.0327 253.219 78.2937 253.543 77.7687C253.868 77.2437 252.128 74.5207 249.676 71.7187C236.775 56.9697 235.705 40.0567 246.888 27.6187C253.339 20.4437 259.34 17.8607 269.59 17.8487C280.509 17.8357 287.338 21.1657 296.348 30.8967C299.882 34.7147 303.226 37.8387 303.779 37.8387C304.331 37.8387 305.49 34.7057 306.355 30.8777C308.158 22.8957 311.694 15.3967 315.929 10.5717ZM358.591 21.0137C356.394 16.7667 349.631 11.1077 345.321 9.91066C332.067 6.23066 319.815 14.1757 315.362 29.3387C312.844 37.9127 312.842 58.7697 315.358 68.5887L317.215 75.8387H321.587C323.991 75.8387 328.966 76.8257 332.643 78.0327L339.327 80.2277L343.117 75.9577C358.865 58.2107 365.551 34.4737 358.591 21.0137ZM303.01 54.8387C296.463 41.8477 288.625 32.2887 281.5 28.6067C276.183 25.8587 265.747 25.2287 261 27.3707C248.895 32.8307 244.27 46.6937 250.384 59.1917C255.399 69.4417 275.773 85.1427 289.792 89.5627L295.172 91.2587L298.679 87.0357C300.608 84.7137 304.17 81.6517 306.593 80.2307C309.017 78.8107 311 77.0957 311 76.4187C311 74.0807 306.273 61.3147 303.01 54.8387ZM522.571 48.1197C524.371 40.8497 526.145 34.4137 526.513 33.8177C528.162 31.1487 529.642 34.3807 532.279 46.4127C535.651 61.7997 538.33 67.8007 544.647 74.1177C549.494 78.9647 553.942 81.1007 566 84.3727C569.575 85.3427 572.95 86.5497 573.5 87.0547C575.068 88.4947 571.679 90.4247 564.352 92.2657C551.399 95.5187 543.312 101.342 538.466 110.906C537.073 113.655 534.569 121.628 532.901 128.622C531.234 135.616 529.449 141.767 528.935 142.289C527.156 144.096 525.778 141.048 522.911 128.97C521.34 122.35 519.117 114.938 517.971 112.5C513.188 102.326 504.521 95.9297 490.1 91.9337C486.039 90.8077 482.499 89.6707 482.234 89.4057C480.749 87.9207 483.614 85.9727 489.651 84.3617C504.329 80.4447 512.333 74.9847 517.108 65.6297C518.313 63.2697 520.771 55.3907 522.571 48.1197ZM415.414 77.9167C415.447 67.6987 411.238 61.1107 402 56.9227C391.522 52.1727 376.528 56.5977 360.07 69.2967C353.82 74.1187 344 83.6857 344 84.9527C344 85.4077 345.349 87.7057 346.997 90.0597C348.645 92.4127 350.391 96.4967 350.876 99.1347C351.362 101.773 352.004 104.176 352.303 104.475C353.53 105.702 373.098 106.018 381.171 104.942C403.947 101.905 415.364 92.8937 415.414 77.9167ZM548.964 85.3467C541.24 81.4237 534.713 74.7347 531.564 67.5137C530.322 64.6677 528.898 61.3117 528.399 60.0567C527.574 57.9817 527.324 58.2477 525.636 63.0007C521.848 73.6677 515.317 81.1337 505.764 85.7177L499.905 88.5307L504.376 90.2387C514.27 94.0167 523.041 103.77 525.977 114.258C527.296 118.97 529 120.408 529 116.81C529 113.567 534.758 103.057 539.138 98.3047C542.715 94.4247 547.33 91.5537 553.5 89.3727C555.153 88.7877 554.365 88.0887 548.964 85.3467ZM329.768 124.291C346.079 117.476 346.079 94.2017 329.768 87.3867C322.745 84.4517 313.635 86.0357 308.16 91.1427C301.334 97.5087 299.869 109.087 304.887 116.999C309.9 124.904 320.715 128.074 329.768 124.291ZM288.258 95.9787C282.469 93.0377 269.164 89.1107 262.5 88.3757C259.2 88.0117 255.375 87.5687 254 87.3917C249.55 86.8187 240.986 88.5757 236.184 91.0467C230.975 93.7277 227.557 98.0557 226.594 103.192C225.591 108.534 227.259 111.277 233.683 114.855C236.882 116.637 243.716 120.832 248.869 124.178L258.239 130.261L266.709 128.071C277.822 125.198 294.429 117.4 293.667 115.412C291.819 110.598 290.89 104.927 291.413 101.655C291.985 98.0807 291.823 97.7897 288.258 95.9787ZM603.297 146.594C608.632 135.342 604.841 121.339 595.286 116.999C585.088 112.368 571.987 116.999 564.217 127.982C561.788 131.416 561.178 133.416 560.864 138.967C560.536 144.78 560.86 146.502 563.125 150.972C571.602 167.701 594.471 165.209 603.297 146.594ZM260.205 144.604C243.025 126.938 222.192 116.728 196.438 113.352C149.653 107.219 102.108 124.087 76.779 155.805C68.17 166.585 64.533 172.898 60.269 184.46C56.785 193.905 56.623 194.91 56.582 207.339C56.543 219.505 56.728 220.787 59.466 227.312C65.288 241.189 75.025 247.855 89.432 247.827C105.545 247.796 118.726 239.866 125.149 226.339C128.712 218.836 128.876 216.356 125.75 217.248C110.618 221.567 103 215.766 103 199.924C103 166.708 141.94 135.994 181.435 138.06C191.864 138.605 199.032 141.228 195.588 143.238C190.722 146.077 181.574 154.482 176.7 160.591C160.544 180.843 154.325 194.663 129.939 264.508C117.64 299.732 113.101 310.837 107.642 319.06C102.203 327.253 94.332 334.105 88.018 336.144C81.369 338.292 78.507 338.252 73.424 335.944C69.292 334.067 66 329.253 66 325.087C66 321.95 68.117 316.516 70.265 314.14C73.108 310.995 71.87 309.092 66.454 308.28C56.018 306.715 41.789 310.362 33.376 316.759C24.025 323.868 19 334.416 19 346.931C19 381.227 56.848 403.641 93.454 391.023C105.189 386.978 111.911 382.756 121.838 373.196L130.293 365.053L134.897 368.33C141.751 373.21 150.939 377.545 159.701 380.033C170.375 383.064 189.914 383.061 201.175 380.027C246.232 367.888 280.122 327.586 292.153 271.839C294.11 262.769 294.424 258.343 294.459 239.339C294.495 219.867 294.233 216.146 292.176 206.958C286.356 180.965 276.086 160.935 260.205 144.604ZM408 143.737C408 128.45 400.039 121.024 377.5 115.286C372 113.886 363.822 112.473 359.327 112.147L351.154 111.553L350.08 115.542C349.489 117.736 347.642 121.413 345.975 123.714L342.945 127.898L346.059 132.424C350.402 138.737 360.017 148.839 366.253 153.641C380.6 164.69 392.759 166.38 401.662 158.563C406.202 154.576 408 150.371 408 143.737ZM312.3 137.902C312.482 134.773 312.186 134.373 309 133.441C307.075 132.877 303.396 130.316 300.824 127.75L296.149 123.083L291.324 125.852C286.416 128.668 273 141.755 273 143.727C273 144.322 275.518 148.067 278.595 152.05C281.672 156.033 286.447 163.127 289.206 167.815C291.965 172.503 294.383 176.512 294.58 176.724C294.777 176.936 296.048 176.382 297.405 175.493C302.1 172.417 311.701 148.188 312.3 137.902ZM346.414 191.883C360.389 184.758 358.699 163.707 342.095 138.089C337.818 131.491 337.538 131.296 334.713 132.94C333.73 133.512 330.132 134.55 326.717 135.246L320.508 136.513L319.288 141.926C318.617 144.903 317.519 152.797 316.848 159.467C315.235 175.49 316.382 181.276 322.35 187.235C328.913 193.789 338.894 195.717 346.414 191.883ZM169.91 256.339C185.587 193.364 192.121 174.843 206.339 153.089C208.586 149.652 210.941 146.839 211.573 146.839C213.469 146.839 220.161 151.698 225.82 157.182C236.918 167.94 244.844 183.089 248.672 200.855C251.39 213.472 251.124 243.618 248.174 257.105C240.753 291.041 224.02 318.035 200.862 333.431C188.122 341.901 171.031 346.858 159.57 345.407C155.417 344.882 145.283 342.203 144.231 341.352C144.083 341.232 145.952 335.985 148.385 329.692C154.977 312.635 161.037 291.983 169.91 256.339ZM405.665 173.166C405.633 167.93 402.328 161.455 398.495 159.118C390.833 154.447 377.926 157.718 370.013 166.338C361.557 175.549 361.818 187.978 370.622 195.386C374.631 198.759 377.559 199.521 383.427 198.716C395.376 197.078 405.739 185.172 405.665 173.166ZM700.119 218.589C701.546 213.089 702.899 208.027 703.126 207.339C704.048 204.545 706.558 206.221 707.619 210.339C714.271 236.143 716.441 239.044 732.568 243.69C742.76 246.627 742.952 248.313 733.413 251.116C724.465 253.745 718.827 256.907 715.832 260.977C712.788 265.113 711.704 267.972 709.154 278.589C707.36 286.061 706.666 287.589 705.066 287.589C703.48 287.589 702.683 285.91 700.56 278.089C695.628 259.927 692.775 256.697 676.749 251.139C666.603 247.62 666.839 246.808 679.101 243.059C691.726 239.199 696.089 234.12 700.119 218.589ZM718.241 245.076C715.899 243.59 712.552 240.64 710.804 238.519C709.056 236.398 707.057 232.956 706.361 230.869L705.096 227.074L702.785 232.112C700.118 237.925 695.16 243.241 689.878 245.951L686.195 247.841L690.148 249.877C695.516 252.642 700.059 257.595 702.687 263.544L704.876 268.5L706.594 264.108C708.818 258.419 713.596 252.782 718.556 249.994L722.501 247.777L718.241 245.076ZM695 351.534C700.396 334.869 701.035 330.441 698.25 329.01C692.913 326.267 677.899 327.476 667.241 331.507L662.982 333.118L659.556 344.228C657.672 350.339 654.979 359.179 653.571 363.871L651.012 372.404L639.348 373.642C632.933 374.324 626.532 375.434 625.124 376.11C619.225 378.94 616.064 390.226 619.857 394.911C621.472 396.906 622.548 397.185 628.107 397.055C631.623 396.972 636.599 396.628 639.165 396.29L643.829 395.675L642.446 400.507C632.033 436.895 628.384 448.247 624.84 455.275C619.881 465.11 612.661 475.688 605.612 483.444L600.333 489.252L600.736 478.296C601.189 465.99 600.401 462.301 592.844 441.339C588.945 430.523 588.52 428.451 588.529 420.339C588.539 412.298 588.884 410.605 591.77 404.451C595.83 395.793 595.893 392.578 592.077 388.762C589.363 386.048 588.614 385.839 581.612 385.839C569.054 385.839 561.342 389.518 554.574 398.738C552.695 401.299 546.328 412.606 540.426 423.866C515.552 471.318 504.322 489.536 492.553 501.523C484.827 509.393 481.237 511.054 477.069 508.688C474.68 507.331 474.507 506.743 474.594 500.284C474.673 494.417 475.963 489.484 482.897 468.511C489.816 447.587 491.132 442.555 491.268 436.511C491.512 425.685 487.448 419.098 477.988 414.986C468.162 410.716 454.617 411.721 443.724 417.527C437.387 420.905 426.79 431.262 421.661 439.089C419.589 442.252 417.781 444.839 417.644 444.839C417.507 444.839 418.66 440.96 420.205 436.218C424.255 423.794 424.747 419.858 422.461 418.187C418.23 415.093 394.324 417.934 390.502 421.985C389.799 422.73 385.072 436.839 379.997 453.339C374.922 469.839 368.321 491.214 365.329 500.839C354.444 535.855 353.228 542.799 356.752 549.825C359.092 554.492 362.132 555.807 370.624 555.824C382.99 555.85 392.284 550.618 393.576 542.903C394.888 535.07 402.047 507.825 404.947 499.629C413.929 474.24 427.871 451.7 438.946 444.664C446.457 439.891 452 441.5 452 448.452C452 450.361 448.454 462.817 444.12 476.131C435.466 502.717 432.429 516.466 433.47 524.338C435.389 538.84 445.19 547.028 458.729 545.44C473.88 543.663 487.624 534.648 502.583 516.675L509.803 508L510.859 512.169C514.576 526.844 528.617 535.883 548 536.079C568.565 536.286 585.193 527.868 605.017 507.213C609.702 502.332 615.552 495.74 618.017 492.564L622.5 486.788L623.209 493.665C624.677 507.921 631.51 518.888 640.616 521.609C655.979 526.2 674.709 518.961 691.924 501.781C696.641 497.073 702.525 490.417 705 486.99L709.5 480.757L710.203 486.209C712.749 505.96 730.344 517.013 750.068 511.253C762.69 507.567 777.718 496.004 785.995 483.609C789.98 477.641 790 477.628 790 480.909C790 491.481 796.417 502.305 804.519 505.399C823.523 512.657 848.135 492.018 867.792 452.339C877.783 432.171 878.828 427.423 873.862 424.765C870.053 422.726 867.595 425.042 861.654 436.267C850.156 457.991 840.253 469.839 833.594 469.839C827.676 469.839 826.573 467.669 826.986 456.839C827.402 445.943 833.739 423.064 844.697 392.899C849.27 380.308 851.911 371.621 851.574 370.276C850.725 366.894 845.614 365.32 836 365.48C825.024 365.663 822.632 366.689 818.797 372.859L815.661 377.903L812.581 374.983C810.886 373.377 807.925 371.262 806 370.282C801.453 367.968 788.506 367.195 781.141 368.796C767.876 371.681 752.389 381.838 740.74 395.292C731.542 405.916 726.004 415.115 718.603 432.065C703.128 467.509 685.972 487.907 671.355 488.244C663.114 488.433 660.003 482.083 661.919 468.982C663.477 458.325 669.535 434.778 676.749 411.339L682.597 392.339L693.549 391.149C715.91 388.72 720.485 386.734 723.396 378.189C725.564 371.827 725.457 368.154 723.066 366.874C720.618 365.564 713.302 365.665 700.25 367.188C694.612 367.846 690 368.068 690 367.68C690 367.293 692.25 360.027 695 351.534ZM384.849 374.909C392.304 361.951 393.516 357.498 390.429 354.41C388.144 352.126 382.196 352.507 344 357.386C307.717 362.02 297.704 364.044 284.286 369.453C252.523 382.258 231.376 406.683 229.322 432.936C228.648 441.543 230.002 448.801 233.635 456.052C238.592 465.946 245.431 470.925 257.03 473.082C270.112 475.515 284.582 469.528 290.652 459.17C292.056 456.774 292.972 454.209 292.689 453.47C292.405 452.73 290.26 451.869 287.923 451.555C273.383 449.605 268.793 431.628 278.24 413.628C286.43 398.022 305.681 387.556 332.75 383.993C336.188 383.54 339 383.335 339 383.536C339 383.737 336.695 389.85 333.877 397.12C331.06 404.391 322.515 429.086 314.889 452C294.328 513.782 288.708 526.483 275.8 540.332C268.1 548.593 260.878 552.464 251.299 553.466C230.774 555.611 217.018 538.007 225.75 520.768C227.898 516.527 229.422 514.901 232.714 513.339C235.031 512.239 236.944 510.809 236.964 510.161C236.984 509.513 234.413 507.95 231.25 506.689C226.612 504.838 223.566 504.392 215.5 504.38C206.73 504.367 204.792 504.696 199.747 507.048C181.121 515.734 170.57 538.432 175.115 560.04C178.721 577.184 193.417 592.325 212.422 598.474C223.33 602.004 242.718 602.888 254.935 600.412C285.161 594.288 307.737 575.518 324.035 542.962C330.233 530.582 336.994 510.413 345.027 480.339C359.442 426.374 367.476 405.104 384.849 374.909ZM751.292 454.062C752.82 431.274 770.789 399.435 787 390.793C790.504 388.925 796.413 388.293 799.455 389.46C804.984 391.582 805.924 405.058 801.506 418.839C795.687 436.988 785.549 455.326 775.618 465.668C760.61 481.297 749.812 476.145 751.292 454.062ZM530.204 487.391C530.773 480.532 540.075 461.468 555.283 435.996L557.279 432.652L560.683 445.496C566.837 468.708 568.409 482.226 565.975 490.991C563.862 498.596 550.867 506.038 542.733 504.299C534.243 502.484 529.485 496.064 530.204 487.391ZM269.25 507.258C266.637 506.871 262.756 505.944 260.624 505.197C252.599 502.385 251.24 503.785 255.669 510.302C257.136 512.462 259.109 516.729 260.053 519.784C260.997 522.839 262.428 525.471 263.233 525.633C264.037 525.795 265.896 524.353 267.364 522.429C269.883 519.126 274 510.682 274 508.817C274 508.347 271.863 507.645 269.25 507.258ZM590.464 183.651C591.687 184.507 592.687 186.037 592.687 187.051C592.687 188.065 589.75 197.152 586.159 207.245C575.557 237.05 568.687 263.163 568.687 273.66C568.687 278.207 570.194 281.76 572.688 283.095C579.657 286.824 591.501 273.802 604.689 247.909C612.177 233.205 615.228 230.559 619.858 234.749C622.564 237.198 622.131 240.306 617.597 250.973C608.742 271.802 597.732 289.162 585.67 301.316C574.982 312.085 565.618 317.102 554.881 317.812C549 318.2 547.519 317.911 542.687 315.424C536.062 312.015 531.407 305.671 529.598 297.585L528.369 292.093L525.091 296.961C520.669 303.527 507.228 317.606 498.795 324.505C491.978 330.083 491.884 330.228 488.281 340.656C473.963 382.107 457.604 402.83 433.34 410.253C424.115 413.075 408.806 412.545 400.945 409.131C382.51 401.125 382.098 379.698 400.044 362.299C408.092 354.498 416.971 348.458 430.225 341.769C439.621 337.027 454.19 331.094 456.436 331.094C458.114 331.094 458.91 329.119 463.268 314.162C465.26 307.324 467.138 301.024 467.442 300.162C467.745 299.299 466.03 301.519 463.629 305.094C456.721 315.383 447.981 323.552 439.568 327.584C433.181 330.645 431.273 331.094 424.662 331.094C409.898 331.094 400.854 323.551 396.073 307.253C395.849 306.488 392.53 309.717 388.347 314.771C378.639 326.5 369.662 334.489 361.891 338.314C341.649 348.279 325.556 337.114 326.861 314.012L327.248 307.171C304.358 323.422 296.391 320.997 285.811 314.494C287.847 315.082 290.227 314.958 293.028 314.136C312.365 308.461 334.686 275.789 349.759 231.094C352.077 224.219 354.509 218.011 355.163 217.298C357.134 215.148 366.702 213.067 375.057 212.972C384.206 212.868 387.983 214.759 388.479 219.693C388.649 221.387 386.311 229.248 382.857 238.594C374.12 262.234 366.892 284.862 365.517 292.882C363.885 302.396 365.005 305.094 370.585 305.094C379.651 305.094 391.862 288.444 399.388 265.823C406.703 243.836 416.74 227.345 432.269 211.795C441.328 202.725 448.3 198.085 458.445 194.373C464.162 192.282 466.479 191.97 473.687 192.321C483.131 192.782 488.141 194.757 493.097 199.974L496.007 203.038L500.097 196.86C504.761 189.815 506.315 189.101 517.385 188.916C525.984 188.773 529.687 190.57 529.687 194.887C529.687 198.142 527.182 207.466 521.17 226.594C517.683 237.687 510.056 264.387 500.03 300.594C499.204 303.58 511.851 290.899 518.676 281.898C532.181 264.09 540.418 246.234 551.716 210.277C556.741 194.284 559.592 186.68 560.809 186.029C567.82 182.277 586.378 180.789 590.464 183.651Z" fill="#26312A"/>
<path d="M468.363 216.185C447.247 230.172 428.637 275.942 437.296 292.594C440.822 299.375 446.044 299.754 453.858 293.794C466.778 283.942 484.219 250.994 487.101 230.996C487.872 225.646 486.275 217.401 483.975 214.86C481.279 211.88 473.919 212.505 468.363 216.185Z" fill="#26312A"/>
<path d="M440.695 357.797C427.429 365.956 422.159 370.28 418.553 375.967C415.486 380.802 414.956 383.963 416.887 385.894C422.405 391.412 438.138 378.51 447.138 361.085C449.736 356.053 451.711 351.803 451.525 351.641C451.339 351.478 446.466 354.248 440.695 357.797Z" fill="#26312A"/>
<path d="M329.768 87.3866C346.079 94.2017 346.079 117.476 329.768 124.291C320.715 128.074 309.9 124.904 304.887 116.999C299.869 109.087 301.334 97.5086 308.16 91.1426C313.635 86.0356 322.745 84.4517 329.768 87.3866Z" fill="#FBD555"/>
<path d="M345.321 9.91057C349.631 11.1076 356.394 16.7666 358.591 21.0136C365.551 34.4736 358.865 58.2106 343.117 75.9576L339.327 80.2276L332.643 78.0326C328.966 76.8256 323.991 75.8386 321.587 75.8386H317.215L315.358 68.5886C312.842 58.7696 312.844 37.9126 315.362 29.3386C319.815 14.1756 332.067 6.23057 345.321 9.91057Z" fill="#F88EA2"/>
<path d="M281.5 28.6068C288.625 32.2888 296.463 41.8478 303.01 54.8388C306.273 61.3148 311 74.0808 311 76.4188C311 77.0958 309.017 78.8108 306.593 80.2308C304.17 81.6518 300.608 84.7138 298.679 87.0358L295.172 91.2588L289.792 89.5628C275.773 85.1428 255.399 69.4418 250.384 59.1918C244.27 46.6938 248.895 32.8308 261 27.3708C265.747 25.2288 276.183 25.8588 281.5 28.6068Z" fill="#F88EA2"/>
<path d="M262.5 88.3756C269.164 89.1106 282.469 93.0376 288.258 95.9786C291.823 97.7896 291.985 98.0806 291.413 101.655C290.89 104.927 291.819 110.598 293.667 115.412C294.429 117.4 277.822 125.198 266.709 128.071L258.239 130.261L248.869 124.178C243.716 120.832 236.882 116.637 233.683 114.855C227.259 111.277 225.591 108.534 226.594 103.192C227.557 98.0556 230.975 93.7276 236.184 91.0466C240.986 88.5756 249.55 86.8186 254 87.3916C255.375 87.5686 259.2 88.0116 262.5 88.3756Z" fill="#F88EA2"/>
<path d="M309 133.441C312.186 134.373 312.482 134.773 312.3 137.902C311.701 148.188 302.1 172.417 297.405 175.493C296.048 176.382 294.777 176.936 294.58 176.724C294.383 176.512 291.965 172.503 289.206 167.815C286.447 163.127 281.672 156.033 278.595 152.05C275.518 148.067 273 144.322 273 143.727C273 141.755 286.416 128.668 291.324 125.852L296.149 123.083L300.824 127.75C303.396 130.316 307.075 132.877 309 133.441Z" fill="#F88EA2"/>
<path d="M342.095 138.089C358.699 163.707 360.389 184.758 346.414 191.883C338.894 195.717 328.913 193.789 322.35 187.235C316.382 181.276 315.235 175.49 316.848 159.467C317.519 152.797 318.617 144.903 319.288 141.926L320.508 136.513L326.717 135.246C330.132 134.55 333.73 133.512 334.713 132.94C337.538 131.296 337.818 131.491 342.095 138.089Z" fill="#F88EA2"/>
<path d="M377.5 115.286C400.039 121.024 408 128.45 408 143.737C408 150.371 406.202 154.576 401.662 158.563C392.759 166.38 380.6 164.69 366.253 153.641C360.017 148.839 350.402 138.737 346.059 132.424L342.945 127.898L345.975 123.714C347.642 121.413 349.489 117.736 350.08 115.542L351.154 111.553L359.327 112.147C363.822 112.473 372 113.886 377.5 115.286Z" fill="#F88EA2"/>
<path d="M402 56.9228C411.238 61.1108 415.447 67.6988 415.414 77.9168C415.364 92.8938 403.947 101.905 381.171 104.942C373.098 106.018 353.53 105.702 352.303 104.475C352.004 104.176 351.362 101.773 350.876 99.1348C350.391 96.4968 348.645 92.4128 346.997 90.0598C345.349 87.7058 344 85.4078 344 84.9528C344 83.6858 353.82 74.1188 360.07 69.2968C376.528 56.5978 391.522 52.1728 402 56.9228Z" fill="#F88EA2"/>
<path d="M531.564 67.5139C534.713 74.7349 541.24 81.4239 548.964 85.3469C554.365 88.0889 555.153 88.7879 553.5 89.3729C547.33 91.5539 542.715 94.4249 539.138 98.3049C534.758 103.057 529 113.567 529 116.81C529 120.408 527.296 118.97 525.977 114.258C523.041 103.77 514.27 94.0169 504.376 90.2389L499.905 88.5309L505.764 85.7179C515.317 81.1339 521.848 73.6679 525.636 63.0009C527.324 58.2479 527.574 57.9819 528.399 60.0569C528.898 61.3119 530.322 64.6679 531.564 67.5139Z" fill="#FCF6E4"/>
<path d="M710.804 238.519C712.552 240.64 715.899 243.59 718.241 245.076L722.501 247.777L718.556 249.994C713.596 252.782 708.818 258.419 706.594 264.108L704.876 268.5L702.687 263.544C700.059 257.595 695.516 252.642 690.148 249.877L686.195 247.841L689.878 245.951C695.16 243.241 700.118 237.925 702.785 232.112L705.096 227.074L706.361 230.869C707.057 232.956 709.056 236.398 710.804 238.519Z" fill="#FCF6E4"/>
<path fill-rule="evenodd" clip-rule="evenodd" d="M196.438 113.352C222.192 116.728 243.025 126.938 260.205 144.604C276.086 160.935 286.356 180.965 292.176 206.958C294.233 216.146 294.495 219.867 294.459 239.339C294.424 258.343 294.11 262.769 292.153 271.839C280.122 327.586 246.232 367.888 201.175 380.027C189.914 383.061 170.375 383.064 159.701 380.033C150.939 377.545 141.751 373.21 134.897 368.33L130.293 365.053L121.838 373.196C111.911 382.756 105.189 386.978 93.454 391.023C56.848 403.641 19 381.227 19 346.931C19 334.416 24.025 323.868 33.376 316.759C41.789 310.362 56.018 306.715 66.454 308.28C71.87 309.092 73.108 310.995 70.265 314.14C68.117 316.516 66 321.95 66 325.087C66 329.253 69.292 334.067 73.424 335.944C78.507 338.252 81.369 338.292 88.018 336.144C94.332 334.105 102.203 327.253 107.642 319.06C113.101 310.837 117.64 299.732 129.939 264.508C154.325 194.663 160.544 180.843 176.7 160.591C181.574 154.482 190.722 146.077 195.588 143.238C199.032 141.228 191.864 138.605 181.435 138.06C141.94 135.994 103 166.708 103 199.924C103 215.766 110.618 221.567 125.75 217.248C128.876 216.356 128.712 218.836 125.149 226.339C118.726 239.866 105.545 247.796 89.432 247.827C75.025 247.855 65.288 241.189 59.466 227.312C56.728 220.787 56.543 219.505 56.582 207.339C56.623 194.91 56.785 193.905 60.269 184.46C64.533 172.898 68.17 166.585 76.779 155.805C102.108 124.087 149.653 107.219 196.438 113.352ZM169.91 256.339C185.587 193.364 192.121 174.843 206.339 153.089C208.586 149.652 210.941 146.839 211.573 146.839C213.469 146.839 220.161 151.698 225.82 157.182C236.918 167.94 244.844 183.089 248.672 200.855C251.39 213.472 251.124 243.618 248.174 257.105C240.753 291.041 224.02 318.035 200.862 333.431C188.122 341.901 171.031 346.858 159.57 345.407C155.417 344.882 145.283 342.203 144.231 341.352C144.083 341.232 145.952 335.985 148.385 329.692C154.977 312.635 161.037 291.983 169.91 256.339Z" fill="#FCF6E4"/>
<path d="M390.429 354.41C393.516 357.498 392.304 361.951 384.849 374.909C367.476 405.104 359.442 426.374 345.027 480.339C336.994 510.413 330.233 530.582 324.035 542.962C307.737 575.518 285.161 594.288 254.935 600.412C242.718 602.888 223.33 602.004 212.422 598.474C193.417 592.325 178.721 577.184 175.115 560.04C170.57 538.432 181.121 515.734 199.747 507.048C204.792 504.696 206.73 504.367 215.5 504.38C223.566 504.392 226.612 504.838 231.25 506.689C234.413 507.95 236.984 509.513 236.964 510.161C236.944 510.809 235.031 512.239 232.714 513.339C229.422 514.901 227.898 516.527 225.75 520.768C217.018 538.007 230.774 555.611 251.299 553.466C260.878 552.464 268.1 548.593 275.8 540.332C288.708 526.483 294.328 513.782 314.889 452C322.515 429.086 331.06 404.391 333.877 397.12C336.695 389.85 339 383.737 339 383.536C339 383.335 336.188 383.54 332.75 383.993C305.681 387.556 286.43 398.022 278.24 413.628C268.793 431.628 273.383 449.605 287.923 451.555C290.26 451.869 292.405 452.73 292.689 453.47C292.972 454.209 292.056 456.774 290.652 459.17C284.582 469.528 270.112 475.515 257.03 473.082C245.431 470.925 238.592 465.946 233.635 456.052C230.002 448.801 228.648 441.543 229.322 432.936C231.376 406.683 252.523 382.258 284.286 369.453C297.704 364.044 307.717 362.02 344 357.386C382.196 352.507 388.144 352.126 390.429 354.41Z" fill="#FCF6E4"/>
<path fill-rule="evenodd" clip-rule="evenodd" d="M698.25 329.01C701.035 330.441 700.396 334.869 695 351.534C692.25 360.027 690 367.293 690 367.68C690 368.068 694.612 367.846 700.25 367.188C713.302 365.665 720.618 365.564 723.066 366.874C725.457 368.154 725.564 371.827 723.396 378.189C720.485 386.734 715.91 388.72 693.549 391.149L682.597 392.339L676.749 411.339C669.535 434.778 663.477 458.325 661.919 468.982C660.003 482.083 663.114 488.433 671.355 488.244C685.972 487.907 703.128 467.509 718.603 432.065C726.004 415.115 731.542 405.916 740.74 395.292C752.389 381.838 767.876 371.681 781.141 368.796C788.506 367.195 801.453 367.968 806 370.282C807.925 371.262 810.886 373.377 812.581 374.983L815.661 377.903L818.797 372.859C822.632 366.689 825.024 365.663 836 365.48C845.614 365.32 850.725 366.894 851.574 370.276C851.911 371.621 849.27 380.308 844.697 392.899C833.739 423.064 827.402 445.943 826.986 456.839C826.573 467.669 827.676 469.839 833.594 469.839C840.253 469.839 850.156 457.991 861.654 436.267C867.595 425.042 870.053 422.726 873.862 424.765C878.828 427.423 877.783 432.171 867.792 452.339C848.135 492.018 823.523 512.657 804.519 505.399C796.417 502.305 790 491.481 790 480.909C790 477.628 789.98 477.641 785.995 483.609C777.718 496.004 762.69 507.567 750.068 511.253C730.344 517.013 712.749 505.96 710.203 486.209L709.5 480.757L705 486.99C702.525 490.417 696.641 497.073 691.924 501.781C674.709 518.961 655.979 526.2 640.616 521.609C631.51 518.888 624.677 507.921 623.209 493.665L622.5 486.788L618.017 492.564C615.552 495.74 609.702 502.332 605.017 507.213C585.193 527.868 568.565 536.286 548 536.079C528.617 535.883 514.576 526.844 510.859 512.169L509.803 508L502.583 516.675C487.624 534.648 473.88 543.663 458.729 545.44C445.19 547.028 435.389 538.84 433.47 524.338C432.429 516.466 435.466 502.717 444.12 476.131C448.454 462.817 452 450.361 452 448.452C452 441.5 446.457 439.891 438.946 444.664C427.871 451.7 413.929 474.24 404.947 499.629C402.047 507.825 394.888 535.07 393.576 542.903C392.284 550.618 382.99 555.85 370.624 555.824C362.132 555.807 359.092 554.492 356.752 549.825C353.228 542.799 354.444 535.855 365.329 500.839C368.321 491.214 374.922 469.839 379.997 453.339C385.072 436.839 389.799 422.73 390.502 421.985C394.324 417.934 418.23 415.093 422.461 418.187C424.747 419.858 424.255 423.794 420.205 436.218C418.66 440.96 417.507 444.839 417.644 444.839C417.781 444.839 419.589 442.252 421.661 439.089C426.79 431.262 437.387 420.905 443.724 417.527C454.617 411.721 468.162 410.716 477.988 414.986C487.448 419.098 491.512 425.685 491.268 436.511C491.132 442.555 489.816 447.587 482.897 468.511C475.963 489.484 474.673 494.417 474.594 500.284C474.507 506.743 474.68 507.331 477.069 508.688C481.237 511.054 484.827 509.393 492.553 501.523C504.322 489.536 515.552 471.318 540.426 423.866C546.328 412.606 552.695 401.299 554.574 398.738C561.342 389.518 569.054 385.839 581.612 385.839C588.614 385.839 589.363 386.048 592.077 388.762C595.893 392.578 595.83 395.793 591.77 404.451C588.884 410.605 588.539 412.298 588.529 420.339C588.52 428.451 588.945 430.523 592.844 441.339C600.401 462.301 601.189 465.99 600.736 478.296L600.333 489.252L605.612 483.444C612.661 475.688 619.881 465.11 624.84 455.275C628.384 448.247 632.033 436.895 642.446 400.507L643.829 395.675L639.165 396.29C636.599 396.628 631.623 396.972 628.107 397.055C622.548 397.185 621.472 396.906 619.857 394.911C616.064 390.226 619.225 378.94 625.124 376.11C626.532 375.434 632.933 374.324 639.348 373.642L651.012 372.404L653.571 363.871C654.979 359.179 657.672 350.339 659.556 344.228L662.982 333.118L667.241 331.507C677.899 327.476 692.913 326.267 698.25 329.01ZM751.292 454.062C752.82 431.274 770.789 399.435 787 390.793C790.504 388.925 796.413 388.293 799.455 389.46C804.984 391.582 805.924 405.058 801.506 418.839C795.687 436.988 785.549 455.326 775.618 465.668C760.61 481.297 749.812 476.145 751.292 454.062ZM530.204 487.391C530.773 480.532 540.075 461.468 555.283 435.996L557.279 432.652L560.683 445.496C566.837 468.708 568.409 482.226 565.975 490.991C563.862 498.596 550.867 506.038 542.733 504.299C534.243 502.484 529.485 496.064 530.204 487.391Z" fill="#FCF6E4"/>
<path fill-rule="evenodd" clip-rule="evenodd" d="M592.687 187.051C592.687 186.037 591.687 184.507 590.464 183.651C586.378 180.789 567.82 182.277 560.809 186.029C559.592 186.68 556.741 194.284 551.716 210.277C540.418 246.234 532.181 264.09 518.676 281.898C511.851 290.899 499.204 303.58 500.03 300.594C510.056 264.387 517.683 237.687 521.17 226.594C527.182 207.466 529.687 198.142 529.687 194.887C529.687 190.57 525.984 188.773 517.385 188.916C506.315 189.101 504.761 189.815 500.097 196.86L496.007 203.038L493.097 199.974C488.141 194.757 483.131 192.782 473.687 192.321C466.479 191.97 464.162 192.282 458.445 194.373C448.3 198.085 441.328 202.725 432.269 211.795C416.74 227.345 406.703 243.836 399.388 265.823C391.862 288.444 379.651 305.094 370.585 305.094C365.005 305.094 363.885 302.396 365.517 292.882C366.892 284.862 374.12 262.234 382.857 238.594C386.311 229.248 388.649 221.387 388.479 219.693C387.983 214.759 384.206 212.868 375.057 212.972C366.702 213.067 357.134 215.148 355.163 217.298C354.509 218.011 352.077 224.219 349.759 231.094C334.686 275.789 312.365 308.461 293.028 314.136C290.227 314.958 287.847 315.082 285.811 314.494C296.391 320.997 304.358 323.422 327.248 307.171L326.861 314.012C325.556 337.114 341.649 348.279 361.891 338.314C369.662 334.489 378.639 326.5 388.347 314.771C392.53 309.717 395.849 306.488 396.073 307.253C400.854 323.551 409.898 331.094 424.662 331.094C431.273 331.094 433.181 330.645 439.568 327.584C447.981 323.552 456.721 315.383 463.629 305.094C466.03 301.519 467.745 299.299 467.442 300.162C467.138 301.024 465.26 307.324 463.268 314.162C458.91 329.119 458.114 331.094 456.436 331.094C454.19 331.094 439.621 337.027 430.225 341.769C416.971 348.458 408.092 354.498 400.044 362.299C382.098 379.698 382.51 401.125 400.945 409.131C408.806 412.545 424.115 413.075 433.34 410.253C457.604 402.83 473.963 382.107 488.281 340.656C491.884 330.228 491.978 330.083 498.795 324.505C507.228 317.606 520.669 303.527 525.091 296.961L528.369 292.093L529.598 297.585C531.407 305.671 536.062 312.015 542.687 315.424C547.519 317.911 549 318.2 554.881 317.812C565.618 317.102 574.982 312.085 585.67 301.316C597.732 289.162 608.742 271.802 617.597 250.973C622.131 240.306 622.564 237.198 619.858 234.749C615.228 230.559 612.177 233.205 604.689 247.909C591.501 273.802 579.657 286.824 572.688 283.095C570.194 281.76 568.687 278.207 568.687 273.66C568.687 263.163 575.557 237.05 586.159 207.245C589.75 197.152 592.687 188.065 592.687 187.051ZM437.296 292.594C428.637 275.942 447.247 230.172 468.363 216.185C473.919 212.505 481.279 211.88 483.975 214.86C486.275 217.401 487.872 225.646 487.101 230.996C484.219 250.994 466.778 283.942 453.858 293.794C446.044 299.754 440.822 299.375 437.296 292.594ZM418.553 375.967C422.159 370.28 427.429 365.956 440.695 357.797C446.466 354.248 451.339 351.478 451.525 351.641C451.711 351.803 449.736 356.053 447.138 361.085C438.138 378.51 422.405 391.412 416.887 385.894C414.956 383.963 415.486 380.802 418.553 375.967Z" fill="#FCF6E4"/>
<path d="M595.286 116.999C604.841 121.339 608.632 135.342 603.297 146.594C594.471 165.209 571.602 167.701 563.125 150.972C560.86 146.502 560.536 144.78 560.864 138.967C561.178 133.416 561.788 131.416 564.217 127.982C571.987 116.999 585.088 112.368 595.286 116.999Z" fill="#FCF6E4"/>
<path d="M398.495 159.118C402.328 161.455 405.633 167.93 405.665 173.166C405.739 185.172 395.376 197.078 383.427 198.716C377.559 199.521 374.631 198.759 370.622 195.386C361.818 187.978 361.557 175.549 370.013 166.338C377.926 157.718 390.833 154.447 398.495 159.118Z" fill="#FCF6E4"/>
</g>
<defs>
<clipPath id="clip0_47_4">
<rect width="897" height="635" fill="white"/>
</clipPath>
</defs>
</svg>
