<svg width="30" height="30" viewBox="0 0 30 30" fill="none" xmlns="http://www.w3.org/2000/svg">
<path d="M25.5571 5.5083L5.16162 25.9646H25.7459L25.5571 5.5083Z" stroke="#424242" stroke-miterlimit="10" stroke-linecap="round" stroke-linejoin="round"/>
<path d="M22.818 12.8613L12.8091 22.9481H22.818V12.8613Z" stroke="#424242" stroke-miterlimit="10" stroke-linejoin="round"/>
<path d="M21.4018 6.35672L19.0412 4L6.29405 16.7263L4.5 20.9684L8.46578 19.1773L21.4018 6.35672Z" stroke="#424242" stroke-miterlimit="10" stroke-linejoin="round"/>
<path d="M19.4191 7.95916L17.3418 5.88525" stroke="#424242" stroke-miterlimit="10" stroke-linejoin="round"/>
<path d="M6.38867 16.6321L8.65483 18.8945" stroke="#424242" stroke-miterlimit="10" stroke-linejoin="round"/>
<path d="M7.61572 17.8575L18.38 7.11084" stroke="#424242" stroke-miterlimit="10" stroke-linejoin="round"/>
<path d="M16.8695 16.2549L15.9253 15.3123" stroke="#424242" stroke-miterlimit="10" stroke-linecap="round" stroke-linejoin="round"/>
<path d="M15.5477 17.5748L14.6035 16.5378" stroke="#424242" stroke-miterlimit="10" stroke-linecap="round" stroke-linejoin="round"/>
<path d="M14.3192 18.8001L13.375 17.8574" stroke="#424242" stroke-miterlimit="10" stroke-linecap="round" stroke-linejoin="round"/>
<path d="M12.9975 20.1199L12.0532 19.1772" stroke="#424242" stroke-miterlimit="10" stroke-linecap="round" stroke-linejoin="round"/>
<path d="M11.6757 21.4398L10.7314 20.4028" stroke="#424242" stroke-miterlimit="10" stroke-linecap="round" stroke-linejoin="round"/>
<path d="M10.4486 22.6651L9.50439 21.7224" stroke="#424242" stroke-miterlimit="10" stroke-linecap="round" stroke-linejoin="round"/>
<path d="M9.12685 23.9849L8.18262 23.0422" stroke="#424242" stroke-miterlimit="10" stroke-linecap="round" stroke-linejoin="round"/>
<path d="M18.1913 14.9351L17.2471 13.9924" stroke="#424242" stroke-miterlimit="10" stroke-linecap="round" stroke-linejoin="round"/>
<path d="M19.5128 13.6153L18.4741 12.6726" stroke="#424242" stroke-miterlimit="10" stroke-linecap="round" stroke-linejoin="round"/>
<path d="M20.835 12.39L19.7964 11.353" stroke="#424242" stroke-miterlimit="10" stroke-linecap="round" stroke-linejoin="round"/>
<path d="M22.0624 11.0702L21.1182 10.0332" stroke="#424242" stroke-miterlimit="10" stroke-linecap="round" stroke-linejoin="round"/>
<path d="M23.3847 9.7503L22.4404 8.80762" stroke="#424242" stroke-miterlimit="10" stroke-linecap="round" stroke-linejoin="round"/>
</svg>
