<svg width="30" height="30" viewBox="0 0 30 30" fill="none" xmlns="http://www.w3.org/2000/svg">
<path d="M15.2821 18.5185C18.7365 18.5185 21.5368 15.7214 21.5368 12.271C21.5368 8.82056 18.7365 6.02344 15.2821 6.02344C11.8277 6.02344 9.02734 8.82056 9.02734 12.271C9.02734 15.7214 11.8277 18.5185 15.2821 18.5185Z" stroke="#424242" stroke-miterlimit="10" stroke-linecap="round" stroke-linejoin="round"/>
<path d="M15.2809 20.5428C19.8543 20.5428 23.5618 16.8396 23.5618 12.2714C23.5618 7.70323 19.8543 4 15.2809 4C10.7075 4 7 7.70323 7 12.2714C7 16.8396 10.7075 20.5428 15.2809 20.5428Z" stroke="#424242" stroke-miterlimit="10" stroke-linecap="round" stroke-linejoin="round"/>
<path d="M10.1712 19.0469L7.08789 24.2385L10.5236 23.3586L11.845 26.7903L15.1926 20.9827" stroke="#424242" stroke-miterlimit="10" stroke-linecap="round" stroke-linejoin="round"/>
<path d="M20.654 18.7832L23.7373 24.2388L20.3016 23.3589L18.9802 26.7906L15.7207 20.983" stroke="#424242" stroke-miterlimit="10" stroke-linecap="round" stroke-linejoin="round"/>
<path d="M15.3686 8.31152L16.3376 11.2153H19.3328L16.9543 12.9752L17.8352 15.879L15.3686 14.0311L12.9019 15.879L13.8709 12.9752L11.4043 11.2153H14.4876L15.3686 8.31152Z" stroke="#424242" stroke-miterlimit="10" stroke-linecap="round" stroke-linejoin="round"/>
</svg>
