<svg width="30" height="30" viewBox="0 0 30 30" fill="none" xmlns="http://www.w3.org/2000/svg">
<path d="M13.0591 8H26.1433" stroke="#424242" stroke-miterlimit="10" stroke-linecap="round"/>
<path d="M13.0591 10H26.1433" stroke="#424242" stroke-miterlimit="10" stroke-linecap="round"/>
<path d="M13.0591 12H26.1433" stroke="#424242" stroke-miterlimit="10" stroke-linecap="round"/>
<path d="M13.0591 14H26.1433" stroke="#424242" stroke-miterlimit="10" stroke-linecap="round"/>
<path d="M3.5 16H26.1432" stroke="#424242" stroke-miterlimit="10" stroke-linecap="round"/>
<path d="M3.5 18H26.1432" stroke="#424242" stroke-miterlimit="10" stroke-linecap="round"/>
<path d="M3.5 20H26.1432" stroke="#424242" stroke-miterlimit="10" stroke-linecap="round"/>
<path d="M3.5 22H26.1432" stroke="#424242" stroke-miterlimit="10" stroke-linecap="round"/>
<path d="M11.6353 8H3.5V14.16H11.6353V8Z" fill="#424242" stroke="#424242" stroke-miterlimit="10" stroke-linecap="round" stroke-linejoin="round"/>
<path d="M9.53335 11.5201C9.53335 11.6801 9.46556 11.7601 9.39776 11.7601C9.32997 11.8401 9.19438 11.8401 9.12659 11.8401C9.05879 11.8401 8.92321 11.7601 8.65203 11.6001C8.38085 11.4401 8.10968 11.2801 7.77071 11.2001C7.9063 11.4401 7.97409 11.6801 8.10968 11.8401C8.24527 12.0001 8.31306 12.1601 8.31306 12.3201C8.38086 12.4801 8.44865 12.5601 8.44865 12.6401C8.44865 12.7201 8.51644 12.8001 8.44865 12.8801C8.44865 12.9601 8.38086 13.0401 8.31306 13.1201C8.24527 13.2001 8.17747 13.2001 8.04189 13.2001C8.04189 13.2001 7.97409 13.2001 7.9063 13.1201C7.8385 13.0401 7.8385 13.0401 7.8385 12.9601C7.8385 12.8001 7.77071 12.6401 7.77071 12.4001C7.77071 12.1601 7.70292 11.7601 7.63512 11.2801C7.43174 11.6801 7.22836 12.0001 7.16057 12.2401C7.02498 12.4801 6.95718 12.6401 6.88939 12.7201C6.8216 12.7201 6.7538 12.8001 6.7538 12.8001C6.68601 12.8001 6.61821 12.8001 6.55042 12.8001C6.48263 12.8001 6.41483 12.7201 6.34704 12.6401C6.27924 12.5601 6.27924 12.4801 6.27924 12.4001C6.27924 12.3201 6.34704 12.2401 6.41483 12.1601C6.41483 12.0801 6.55042 12.0001 6.61821 11.9201C6.7538 11.8401 6.88939 11.6801 7.02498 11.6001C7.16057 11.4401 7.36395 11.2801 7.49953 11.1201C7.22836 11.0401 6.88939 11.0401 6.61821 11.0401C6.34704 11.0401 6.14366 11.0401 6.07586 11.0401C6.00807 11.0401 5.87248 10.9601 5.87248 10.8801C5.80469 10.8001 5.80469 10.7201 5.80469 10.5601C5.80469 10.4001 5.87248 10.3201 5.94028 10.3201C6.00807 10.2401 6.07586 10.2401 6.21145 10.3201C6.27924 10.3201 6.48263 10.4001 6.68601 10.5601C6.88939 10.7201 7.16057 10.8001 7.56733 10.9601C7.43174 10.7201 7.36395 10.4801 7.29615 10.2401C7.22836 10.0001 7.09277 9.92013 7.02498 9.76013C6.95718 9.68013 6.88939 9.52013 6.88939 9.44013C6.88939 9.36013 6.8216 9.28013 6.88939 9.20013C6.88939 9.12013 6.95718 9.04013 7.02498 8.96013C7.09277 8.88013 7.16057 8.88013 7.29615 8.88013C7.36395 8.88013 7.43174 8.96013 7.43174 8.96013C7.49953 9.04013 7.49953 9.04013 7.49953 9.12013C7.49953 9.20013 7.56733 9.44013 7.56733 9.76013C7.56733 10.0801 7.63512 10.4001 7.70292 10.8001C7.9063 10.4801 8.10968 10.1601 8.17747 9.92013C8.31306 9.68013 8.38085 9.44013 8.44865 9.36013C8.51644 9.36013 8.58424 9.28013 8.65203 9.28013C8.65203 9.28013 8.71982 9.28013 8.78762 9.28013C8.85541 9.28013 8.92321 9.36013 8.991 9.44013C9.05879 9.52013 9.05879 9.60013 9.05879 9.76013C9.05879 9.92013 8.92321 10.0801 8.71982 10.2401C8.51644 10.4001 8.24527 10.6401 7.8385 11.0401C8.17747 11.1201 8.51644 11.1201 8.78762 11.1201C9.05879 11.1201 9.19438 11.1201 9.32997 11.1201C9.46556 11.1201 9.53335 11.2001 9.53335 11.2801C9.53335 11.2801 9.60114 11.4401 9.53335 11.5201Z" fill="white"/>
</svg>
