<svg width="30" height="30" viewBox="0 0 30 30" fill="none" xmlns="http://www.w3.org/2000/svg">
<path d="M20.1587 6H6.47168V23.3167H20.1587V6Z" stroke="#424242" stroke-miterlimit="10" stroke-linejoin="round"/>
<path d="M5.5 7.25806H7.89335" stroke="#424242" stroke-miterlimit="10" stroke-linecap="round" stroke-linejoin="round"/>
<path d="M5.5 8.73804H7.89335" stroke="#424242" stroke-miterlimit="10" stroke-linecap="round" stroke-linejoin="round"/>
<path d="M5.5 10.2183H7.89335" stroke="#424242" stroke-miterlimit="10" stroke-linecap="round" stroke-linejoin="round"/>
<path d="M5.5 11.6982H7.89335" stroke="#424242" stroke-miterlimit="10" stroke-linecap="round" stroke-linejoin="round"/>
<path d="M5.5 13.1782H7.89335" stroke="#424242" stroke-miterlimit="10" stroke-linecap="round" stroke-linejoin="round"/>
<path d="M5.5 14.6584H7.89335" stroke="#424242" stroke-miterlimit="10" stroke-linecap="round" stroke-linejoin="round"/>
<path d="M5.5 16.1384H7.89335" stroke="#424242" stroke-miterlimit="10" stroke-linecap="round" stroke-linejoin="round"/>
<path d="M5.5 17.6184H7.89335" stroke="#424242" stroke-miterlimit="10" stroke-linecap="round" stroke-linejoin="round"/>
<path d="M5.5 19.0984H7.89335" stroke="#424242" stroke-miterlimit="10" stroke-linecap="round" stroke-linejoin="round"/>
<path d="M5.5 20.5786H7.89335" stroke="#424242" stroke-miterlimit="10" stroke-linecap="round" stroke-linejoin="round"/>
<path d="M5.5 22.0586H7.89335" stroke="#424242" stroke-miterlimit="10" stroke-linecap="round" stroke-linejoin="round"/>
<path d="M10.8851 11.4763C11.7525 11.4763 12.4557 10.7805 12.4557 9.92222C12.4557 9.06394 11.7525 8.36816 10.8851 8.36816C10.0177 8.36816 9.31445 9.06394 9.31445 9.92222C9.31445 10.7805 10.0177 11.4763 10.8851 11.4763Z" stroke="#424242" stroke-miterlimit="10" stroke-linecap="round" stroke-linejoin="round"/>
<path d="M13.8022 9.40405H17.9906" stroke="#424242" stroke-miterlimit="10" stroke-linecap="round" stroke-linejoin="round"/>
<path d="M13.8022 10.5881H16.1208" stroke="#424242" stroke-miterlimit="10" stroke-linecap="round" stroke-linejoin="round"/>
<path d="M15.8213 23.5386L22.1038 8.36799C22.3282 7.84997 22.9266 7.62796 23.4501 7.77597C23.9736 7.99798 24.198 8.59 24.0484 9.10802L17.7659 24.2786L16.4196 24.9446L15.8213 23.5386Z" fill="white" stroke="#424242" stroke-miterlimit="10" stroke-linecap="round" stroke-linejoin="round"/>
<path d="M19.561 15.1023L21.1317 15.7683" stroke="#424242" stroke-miterlimit="10" stroke-linecap="round" stroke-linejoin="round"/>
<path d="M16.4194 22.5024L18.0649 23.1685" stroke="#424242" stroke-miterlimit="10" stroke-linecap="round" stroke-linejoin="round"/>
<path d="M21.5801 12.5122L22.8515 9.40405" stroke="#424242" stroke-miterlimit="10" stroke-linecap="round" stroke-linejoin="round"/>
<path d="M10.9603 10.5141C10.8855 10.5141 10.8107 10.5141 10.7359 10.4401L10.2123 9.92212C10.1376 9.84812 10.1376 9.62611 10.2123 9.55211C10.2871 9.4781 10.5115 9.4781 10.5863 9.55211L10.8855 9.84812L12.3065 7.99805C12.4561 7.92405 12.6057 7.85004 12.7553 7.99805C12.9049 8.07205 12.9049 8.29406 12.8301 8.36806L11.1846 10.4401C11.1099 10.5141 11.0351 10.5141 10.9603 10.5141Z" fill="#424242"/>
<path d="M10.8851 16.3603C11.7525 16.3603 12.4557 15.6645 12.4557 14.8063C12.4557 13.948 11.7525 13.2522 10.8851 13.2522C10.0177 13.2522 9.31445 13.948 9.31445 14.8063C9.31445 15.6645 10.0177 16.3603 10.8851 16.3603Z" stroke="#424242" stroke-miterlimit="10" stroke-linecap="round" stroke-linejoin="round"/>
<path d="M13.8022 14.2883H17.2427" stroke="#424242" stroke-miterlimit="10" stroke-linecap="round" stroke-linejoin="round"/>
<path d="M13.8022 15.5464H16.1208" stroke="#424242" stroke-miterlimit="10" stroke-linecap="round" stroke-linejoin="round"/>
<path d="M10.9603 15.4724C10.8855 15.4724 10.8107 15.4724 10.7359 15.3984L10.2123 14.8804C10.1376 14.8064 10.1376 14.5844 10.2123 14.5104C10.2871 14.4364 10.5115 14.4364 10.5863 14.5104L10.8855 14.8064L12.3065 12.9564C12.3813 12.8083 12.6057 12.8083 12.6805 12.8823C12.8301 12.9564 12.8301 13.1784 12.7553 13.2524L11.1846 15.3244C11.1099 15.3984 11.0351 15.4724 10.9603 15.4724Z" fill="#424242"/>
<path d="M10.8851 21.2446C11.7525 21.2446 12.4557 20.5488 12.4557 19.6905C12.4557 18.8323 11.7525 18.1365 10.8851 18.1365C10.0177 18.1365 9.31445 18.8323 9.31445 19.6905C9.31445 20.5488 10.0177 21.2446 10.8851 21.2446Z" stroke="#424242" stroke-miterlimit="10" stroke-linecap="round" stroke-linejoin="round"/>
<path d="M10.9603 20.3565C10.8855 20.3565 10.8107 20.3565 10.7359 20.2825L10.2123 19.7645C10.1376 19.6905 10.1376 19.4684 10.2123 19.3944C10.2871 19.3204 10.5115 19.3204 10.5863 19.3944L10.8855 19.6905L12.3065 17.8404C12.3813 17.6924 12.6057 17.6924 12.6805 17.7664C12.8301 17.8404 12.8301 18.0624 12.7553 18.1364L11.1846 20.2085C11.1099 20.2825 11.0351 20.3565 10.9603 20.3565Z" fill="#424242"/>
</svg>
